/* XPM */
static char *tex_wall_W_result_xpm[] = {
/* width height num_colors chars_per_pixel */
"    64    64      256            2",
/* colors */
"`` c #141204",
"`. c #5c5644",
"`# c #34362c",
"`a c #7c7664",
"`b c #6c6654",
"`c c #4c4634",
"`d c #544e3c",
"`e c #2c261c",
"`f c #645e4c",
"`g c #8c867c",
"`h c #746e5c",
"`i c #44362c",
"`j c #847e6c",
"`k c #342e24",
"`l c #5c4e3c",
"`m c #443e2c",
"`n c #645644",
"`o c #544634",
"`p c #6c5e4c",
"`q c #746654",
"`r c #7c6e5c",
"`s c #241e14",
"`t c #84766c",
"`u c #4c3e34",
"`v c #3c3224",
"`w c #3c362c",
"`x c #54524c",
"`y c #342a24",
"`z c #8c8274",
"`A c #5c524c",
"`B c #645a54",
"`C c #544a44",
"`D c #6c625c",
"`E c #746a64",
"`F c #1c1a0c",
"`G c #5c5a54",
"`H c #7c7a74",
"`I c #4c4a44",
"`J c #54523c",
"`K c #2c2a1c",
"`L c #64625c",
"`M c #948e84",
"`N c #74726c",
"`O c #343224",
"`P c #5c523c",
"`Q c #44423c",
"`R c #645a44",
"`S c #544a34",
"`T c #6c624c",
"`U c #746a54",
"`V c #7c726c",
"`W c #3c3a2c",
"`X c #5c5a4c",
"`Y c #7c7a6c",
"`Z c #6c6a5c",
"`0 c #4c4a3c",
"`1 c #646254",
"`2 c #747264",
"`3 c #443a2c",
"`4 c #848274",
"`5 c #444234",
"`6 c #7c725c",
"`7 c #24221c",
"`8 c #847a6c",
".` c #4c4234",
".. c #1c160c",
".# c #5c564c",
".a c #7c766c",
".b c #6c665c",
".c c #4c463c",
".d c #544e44",
".e c #2c2624",
".f c #645e54",
".g c #8c8a7c",
".h c #746e64",
".i c #847e74",
".j c #342e2c",
".k c #5c4e44",
".l c #443e34",
".m c #64564c",
".n c #54463c",
".o c #6c5e54",
".p c #74665c",
".q c #241e1c",
".r c #3c322c",
".s c #3c3634",
".t c #8c827c",
".u c #1c1a14",
".v c #545244",
".w c #2c2a24",
".x c #949284",
".y c #34322c",
".z c #5c5244",
".A c #645a4c",
".B c #544a3c",
".C c #6c6254",
".D c #746a5c",
".E c #3c3a34",
".F c #443a34",
".G c #7c7264",
".H c #847a74",
".I c #4c423c",
".J c #000000",
".K c #000000",
".L c #000000",
".M c #000000",
".N c #000000",
".O c #000000",
".P c #000000",
".Q c #000000",
".R c #000000",
".S c #000000",
".T c #000000",
".U c #000000",
".V c #000000",
".W c #000000",
".X c #000000",
".Y c #000000",
".Z c #000000",
".0 c #000000",
".1 c #000000",
".2 c #000000",
".3 c #000000",
".4 c #000000",
".5 c #000000",
".6 c #000000",
".7 c #000000",
".8 c #000000",
"#` c #000000",
"#. c #000000",
"## c #000000",
"#a c #000000",
"#b c #000000",
"#c c #000000",
"#d c #000000",
"#e c #000000",
"#f c #000000",
"#g c #000000",
"#h c #000000",
"#i c #000000",
"#j c #000000",
"#k c #000000",
"#l c #000000",
"#m c #000000",
"#n c #000000",
"#o c #000000",
"#p c #000000",
"#q c #000000",
"#r c #000000",
"#s c #000000",
"#t c #000000",
"#u c #000000",
"#v c #000000",
"#w c #000000",
"#x c #000000",
"#y c #000000",
"#z c #000000",
"#A c #000000",
"#B c #000000",
"#C c #000000",
"#D c #000000",
"#E c #000000",
"#F c #000000",
"#G c #000000",
"#H c #000000",
"#I c #000000",
"#J c #000000",
"#K c #000000",
"#L c #000000",
"#M c #000000",
"#N c #000000",
"#O c #000000",
"#P c #000000",
"#Q c #000000",
"#R c #000000",
"#S c #000000",
"#T c #000000",
"#U c #000000",
"#V c #000000",
"#W c #000000",
"#X c #000000",
"#Y c #000000",
"#Z c #000000",
"#0 c #000000",
"#1 c #000000",
"#2 c #000000",
"#3 c #000000",
"#4 c #000000",
"#5 c #000000",
"#6 c #000000",
"#7 c #000000",
"#8 c #000000",
"a` c #000000",
"a. c #000000",
"a# c #000000",
"aa c #000000",
"ab c #000000",
"ac c #000000",
"ad c #000000",
"ae c #000000",
"af c #000000",
"ag c #000000",
"ah c #000000",
"ai c #000000",
"aj c #000000",
"ak c #000000",
"al c #000000",
"am c #000000",
"an c #000000",
"ao c #000000",
"ap c #000000",
"aq c #000000",
"ar c #000000",
"as c #000000",
"at c #000000",
"au c #000000",
"av c #000000",
"aw c #000000",
"ax c #000000",
"ay c #000000",
"az c #000000",
"aA c #000000",
"aB c #000000",
"aC c #000000",
"aD c #000000",
"aE c #000000",
"aF c #000000",
"aG c #000000",
"aH c #000000",
"aI c #000000",
"aJ c #000000",
"aK c #000000",
"aL c #000000",
"aM c #000000",
"aN c #000000",
"aO c #000000",
"aP c #000000",
"aQ c #000000",
"aR c #000000",
"aS c #000000",
"aT c #000000",
"aU c #000000",
"aV c #000000",
"aW c #000000",
"aX c #000000",
"aY c #000000",
"aZ c #000000",
"a0 c #000000",
"a1 c #000000",
"a2 c #000000",
"a3 c #000000",
"a4 c #000000",
"a5 c #000000",
"a6 c #000000",
"a7 c #000000",
"a8 c #000000",
/* pixels */
".B`c.B.A.A.z.c`0.c.c.B.v`0.d.d`X.m.f`d.d.z`..A`d.``c.z.f.D`b.k.z`b`B.#.A.c`Z.i`V.D.f.d`3.B`0.c.d.B.#.B`..G.b`b`0.l.d`A.d.`.A`1.d",
".d.z.#.B.d.``c`w.l.B.d`0.B.v.z.B.c.A.z`P.c`d`0`o`3.``..f`Z.C.o`X.C`1.b`C.A`L`2.h`1.C.c.`.`.B`..#`f.f.#`Z`z`Z`E`A`m.d.A.B.c.A.b`C",
"`1`p`b.k.B`3.`.c.`.v.#.B.A.#.d.l`Q.d.d.B`3`0.I`3`v.I.B`..D.h`T`n.#`X.C`I.#`Z.#.#.z.o.``c`.`..o.C.A`L.C.a.G`1`D.#.d.``I`c.`.v`.`X",
".p.C.h.z`..c.n.l.B.z`X.B`d`R.n`3`X`f.``c.c.z.v.c`v`..z.#.b.C.z.A`Z`X.A`B.f.b.B.#.A`c.w`w.A`f.f`l.#`h.#.D`Z.k`1.z.#.d`3`5.n.#`o.f",
".A.A`f.B.c.l`c.F`0.#.A`f`w.B`0.B`A.z.#.B.#.h.z`c`w.A`d.#.z.f.A`A.f.f.#`f`n`Z.b.f`c`3.l.`.A.b.z.B.#.C`X`A.#`d.d.#.b.#.d.z`0.A.A`f",
"`1.B.d.B`d.z.l`W`d.#.A`X.c.B`5.z.B.v.A.d`1.A.B`Q.`.A.c.d.l.c.#.f.#.f.m.A.c.m.b`f`o.`.``m.`.v.B.B.B.z.C.f.d`c.B.f.b.z.B`d.z.A.A`b",
".A.d.z.z.A.d.l.``C.#`f`d.d.A`A`0`l.v.c.B.z.d.d.z`d.`.B`c.`.c`d.d`.`L`0.z.z`m.d.D.k`m`O.F`f.A`A`d.B`..f.z.c`d.k.v`I.d.#.z.A`f`R.f",
"`c.B.B.c.l.B.c.l.v.B.d.`.c`.`d.`.c.B.z`0`C.B.B`d.n`m.B`0.B`m.B.B.d`..z.#.A.#.z`1.B`3`3.l.d`0.k.d.z.B.d.#.l`I`5.c`B.C`f.d.C.f.v.k",
".B.z.I.l`0.k`C.c.d.``I.``W.z.d`m.B.z`f.A`f.v`A.``3.d.B.n`0`A`..d.#.f.z.f`f.B.#`f.B.`.``v.`.b`r.#.#`5.d.z.c.v.I.I`1.C.f`d.n.#`d.l",
".z.l.n.`.d.B.d`0`A`c.#.#.I.c`..B`..#`f`b.b`B`.`3.n.A`.`m`i.#.C`b.b.D.C.z`A.c.z.D.z.``c.l.C.b.#.z`C.v.z`0.z.d.l.#.h.A.#.#.A.d.c`m",
".c`c`m.B`B`Q`w.c`0.B`0.c.`.z`X.``l.C`f.m`f.f.z`5.`.B`P.A.z`C.C.b`8`H`1.m.v.f.f.b`X.``d.z`Z`B.B.d`d.d`A.z.#`0.d.G`1`C.A.#.B.f`h.d",
".B.c`u`c.f`f.c`A.b`X.d.l.c.#.z.d.v.A`X.z.A`b.z`o.`.`.B`X.A`f`T`..f.C.d`c.b.C.f`X.o.d.c.#.h.f.B.z`C`..C`Z`A.c.f.#.z`C.c.f.C.D.D.A",
".B.B`c.n`X.b.#`Z`E`L.f.c.d`Z`V.#.C.D.C`f`T.C`d`o.l`m.F`d`l.z`n.A`f.c.F.l`..B.d`1.o`w.n`f`b`D.A`..#.D.f`A.d`X.f.C.G.C`1`f`f`b.z`c",
"`.`c`c.B.v`B.A.f.A.f.G.b`X.b`h.C`b.C`R.f`f`..B`c.B.`.B.C.B`3`c.z.A`D.C.A.m.f`Z`Z.#.c.d.C.b.C`X.m.C`X`A`X.A.#.b.G.b`V`h.o.C`.`d.d",
".#`S.B`3`c`B`..A.#.f`Z.h.G.b.d.C.C.z.v.C`1.`.c`n.z.k.z.B.`.v.`.l`d.#.#.d.#`1`D.f`B.d.z`..b`D.#.D`a.A.v.D`b.c`..b.B.b.o`1`b.B.B.z",
".z.`.l`d`..#.#`G`1`D`2.f`2`a.h.C`X.#.b.a.A.#.C`P`P.d`d.#`d`o`o`.`d.F`5.d.#.b.f.f.C`d.d`C.z.d.d.b.C`B.``h.f`d`E.G.b.D`X.m.z.n.``d",
"`d`d`f.b.o.b.A.A.a`8`E.a`r`V`b`E`b`b`Z.G`Z`T.f.d.B`c.z.A`c`C`..B.F.l.v`n.f`Z`D`1`1.m.A.z`x.#.z`D`1.b.#`..B.#`Y.h.G.b.C.D`X`P`X.z",
".A`b.o`d`X.h`X`Z.h`Z.h`M.i.i`2.d.A`1.k`1.D.h.m`d.c`3.d.#`b.C.A.C.#.#.A.#.C.C`X.#`C.z.#`b.h`f.#`1`D`X`u`d.B.A.h.G`Z.z`b.#`l.A`R.z",
"`d.p.b.#.#.f.#`D.h.o.h`2.G`M.H.v.f`f.f.#.z`b.f.z.l.C.A.#`q.f`p.G`h`h.C`1.b.C.#.z`1.f`n.m.f.f.k.f`E.#.d`d`w.c`1.C.C.z`f.#`P.z.d`.",
"`0`A`1`X.z.f.#.A`a.b`h.D.a`g`2.D.C.f`f.d`..b.A.B.#.C`X.f.b.C.A`Z.a.G`Z`q.A.v.z.#`8`8`n.z.A.#`C.#`X`X.z`1`C.B`..d`..z`.`c.#`0`c.d",
".#.d.d.B.d`d`0`h.h.h`8.h.C`8`Z.C.b`1.A`C.v.#`f.d.f`f.#.D.a.G.b`Z`D`X.k.v.A.D.b`..D.o.d`l`X.b`..z.z.d.B`x.A`Q`m.z`1.A.m.z`n.v.``c",
".v`c`5.d.z`5`D.h.b`b.f`Z.f.i.C.A`A.z.#.c.``d.B.v.D`1`D`V.h`..C.C`1`C.l`d.C.G.f.d`p.d`3.I.`.v`B.b.z`d.d.f.b.f`d.d.z`X`b`o`0.`.`.d",
"`P.d.d`f.B.z.A`3.b.C`C.``D.G.f`X.#.#.v.I`0.d`0.z`A`G`2.D.b.z.b`b.b.A.z`f.D.A.z.C.C.``v.c.#.``B`X.``d`..z`..f`X`u`5.n.z.v`u`m.B`J",
".z`d.B`o`5.B`5`5.b.f`d.d`X.C.v.z.#.B.v.d.v.d`B.#.I`f`B.#.d.B.A.z.d`X.A.n.n.v`d.z.#`3`w.B.#`f`f.k.z.d.B`Z`A.z`1.n`m`5`w`v`w.l`m`d",
"`c.l.z`d`d.z`S.`.B`d.#`B.#`A`d`x`0.v`D.f.#.d.f`b.d.c.d.C.b.z.c.d.v.#.f.c.``f`l.z`C.z`3`0.#.z.z.f.d`.`B`D.v.b.C`X.z.c.B`0.B.B.c.z",
".z.B`5.d.z`..z.#.#.f`b.A.d.B`0.#.z`A.b.f`X.c`0.d.B.B`.`Z.A.A`c.d.o.z.d.c`q`b`d`c.A`L`u.z.z`5.I.B.m.A`h`Z`..D`1.B.#.C.D`n.z.f`f`.",
"`..B.c`o.B`X`Z.#`.`X.A.C.d.z.z.z`X.B`X.#`5`3.l`C`x`.`B.o`1`b.m.#.C.A`..#`U.C.B`3`A.A`3`c.c.``d.m`f.C.b.#.k`Z`B.c`Z`E.b.B.`.#.#`R",
".z`d`c.d.#.#.o`Z.m.z`A.A`I.l.v`X`..c`x.I.c`w.c`G.#.d.A`X.b.D`q.D`1`n.b.h.``3.l.I`..v`o`S.d`c.#.A`d.f`2.h`b.f.z.v.h.D`b`..C.D`X.z",
".C`f.A`1.f`..f.A.d.v`I.z.d.z.A.z.c`E.d`W`5.l.d`A.B`d`Z.f`r.h.o`b`p`..h.D.B.l`c`f.A`d`l.B.#.o`f.z`X.#.b.D.A.z.z.A`2.b`n`A`X`p`b`f",
".z`X`..C.A`d.z.c.c.d.l.`.v.A`.`d.A.h`..v.I.l`0.z`c.I`x.f`1.z`f`b.z.m`d`l`J.n.A.z.d`n`0.k`X.C.C`..p.D`X.d.d.A`..b.D.n`d`f.D.b.b.A",
".d.B.z`A`0.B.#`X`d`d.c`A.z`d.c.d.#.d.d`..f.f.d`C`Q.c.#.f.A`B.C.z.z.C`..z`c.z`A.v.#.A`.`f.G.b.G.C.D.a`V.G`8`2.C.f`f.#.f`1.D`2`r`B",
".w`s.u```7.e.w`e.q`7.w`k`7`k.y.w`e.y`O`k.j`#.y`7`e`e.r.w.j`w.j```y.l.y`e`e.w.u.e`e.e`w.r.E`K`k`e.E`Q`I.d`5`W.E`F.e`k`w.s.w.r.E`s",
".D`E.G.b.f.f`.`X.b.G`h`b.D`b.C`Z.D`Z`B.#`X.b`1.a`2.f.#.#`b.f.h`8`b`1`A.v.k`C`..#`A`1.f.C.b.C`Z`b`r.a`4.h.C.D.f.G`g`H`8.i`Y`M`4`H",
".h`a.D.C.A.f.#.A.f`X.#.m`f.z.d.z`X`D`X.d`f.f.#`D`B.c.v.A.#.d.d.A`0.I.c.c.v`C`d.A.#`l`G.h`1`1`E.D`Z`r`2.C.C`Z`f.b.a`2.b`V`8`4.i`D",
"`u`0.d`d`f`f.``3.l`w`v`w`w`k`W`3.d.z.z.B`d.v.B`0.c.f.H`X.F`3`3`v`3.B`c.c.A`.`S.``d.c.A.z`d.m.v`f`q`d`0`P`S.B`3.#`E.C.h`Z`f.o.f.l",
".A.z`0`w.B.I.l.d`P`d.``w`m`w.l`d.z`.`.`..d.z.B.f.f.f`E.f.#.l.``5.`.f.b.A`f.A`p`d.I`0`..d`.`0.I.A.v`d.C.A.c`W`B.a`N`a.a`B`b.h.A.C",
".z`P.c.B.l`W.l`.`.`A.l`c.l`3.I`d.z.#.d.z`d.d`I.v.d.z`1`A.v.``W`u.#.C`q`1`f`p`R`0.``d.#.z`d`u.d.z`d`p`..z`1`C`Z.a`h`V.D.h.b.C.D.A",
"`.`P.c.d.v.z.k.z.c`c.l.z`0`0.l.n`..C.A.z`0.v.#`D.A.z`Z.A.A.#.z.b`r`f.#.k`..z`m`C.B.C.D.z.z`f`X.C.b`d`c.z.A.C.#.b.A`x.h.G.h.G.b`.",
".A.z`d.B`..z.``d.#`..c.v`C.B`d.v`.`B.v`x.k.v`D.b.B.v`D.A`f.A.A`b.k`0`.`d.z.C`..G`Y.D`D`X.d.z.#.o.D`0.k`..D.b`m.B`d`f.D`R.C.#.f`h",
"`h`p`l`X`f`.`i.#`X.d.#.d.A.z.z`d.B`I.l.B`0.I.c.``3.`.c.`.A`q.f`d`..z`n.A.z`b.A`E.D.A`1.A`.`f.d`..c`d`.`..D.b`.`W`..z.C.A`X.z`c.D",
".C.A`..D.A`u`0.z.B`A.z`X`1.v.c`c.l.``w.F.#`X.B`X.d.C`..I`..G`p.A`f.z.A`.`5`C.z.C`f`Q`d.#.b.b`C`X`A`d.#`l.f.b.C.#.k`.`Z.C`f.A.#.o",
"`q`R.C`h.f`3.c`X.d.f.#.#.B.d`..B.c`x.A`d.d.c.B.#.A.h`..`.d.z.`.`.z.k`..z.d.z`d.C.A`k.c`p.A.v.f.A.f.C.B.d`X`E`b.A.z.A`d`n.C.C`Z`h",
".C.A.b.D.f.`.B.B.v`B.d.v.b.z.#.f`X.f.A.A`..B.c.z`X.z.I.l.n`0.c.``0.m`.`c`c.n.l.f`B.v.p.#.A.f.f`f`B.v.v.#.A`f.z`5`C`1`n`r`T`R`d.A",
"`n`d`..b.f.``d`I.#`X.d.#.B.d.f`b.f`f.A`f`d.d.#`f`B`.`d.B.#.A.l.n.d.z.z.c.n`1.C.d.b.C`b.A.#.z.A`Z.f.#.A.B.B.d`x.B`..C`.`b.A`..A`.",
".m.`.o`D.B.``0.c.d.d`B`X.v.#.A`1.k.B.I`w`3`Z.D.b.A`d.z.#.z`0.`.`.c.d`0.``d.z`X.z.c.h.b.#.v.l.A.b.a.G.b`..v`f`a.A`X.A`P.C.D.f`n.C",
"`d.f.D`1.A.B.#.n.d.#`I.d.A.h`Z.c.B.v`m.l`d`D`B`..c.I.d`A`u`5.c.l.B.#.n`0.#.b`1`B.#.f`b.l.c`..f`z.h.A.C.f`n`1`f.d`p.A`b`r`Z.b`f.D",
".B`b`b.D`1.k.z`x.#.d`0.B.I.d.#`..#`f.z.m.z`1.#`Q.`.`.z`0`3.l`m.k`X.A.z.z.A`D`1.A`b`B.d.`.c.A.d.A.#`X.C`b.#`n.d.A.D`Y`r.D.D.C.A`.",
"`o`f.C.A.z.B`C.v`d.B.l`5.B.c.c`A.d.f.d.d.#`Z.h`d.n`d`d.d`3.n.B.c.C.#`0.z.#.h.p`Y.h`b`I.#.#`Z.b.D.#`d`f.A`0`.`c.d.D.i.H`2`a.b`d.d",
"`d.d.d.d.c.c.v.z.d.#.`.E.l`d.d`..c.B.f`b`1.d.I.`.B.B.d.z.``c`o.B`L.f.B.z.#`h.f.D.D.b.d.b.G.b`r.b`..v.A`X.C.A.I`c`1`8.G.p.b.A.B.A",
".I.B`d.z.z.B`P.f.C`1`d.c.c.z.f.d.`.#`h.a`..`.``c.``c.z.A`n.A.l`w.A`X.d`..#.d.z.f.#.A`0.A.C.f`f`1.#.A.C`b`1`h`Z.z.f.b`G`X`..d.z.b",
".B.B.d`..d`o.z`X.A.b.B`c.B`5.#.v`b`1.I.#`..z.z`..B`o`X.A.#.c`c`c.z.z.A.A.#`f.C`B.c.v`C.z.f`Z.C`B`..v.z`X.b.a.a`..z.C.d.z`A.z.#.C",
".#`c.z`b.m`0`f.A`.`f`A.c.B`0.A.z.C.b`f.k.d.#`..A.z`0.z`Z.D`l.B`u`0.A.A.#.f.z.l.F.l.l.l`v`w.z.n.z.v.d.z.f.f.D.h.B`..C.f.f`.`1.#.#",
"`G`c.f.b`d.B.z`R`d.`.v.d.d.z.#`..f.D.G`..A.c.I.v`o.#.f.o`1.#.``3.`.f.v.d.B.l`w`0.v.A`B`0`A.v.l.#.l.l.l.I.c.v.A`c.C`1.A.d.B.#.n.z",
"`d.k.b`X`o.z.A.A.v.B.B.#.#.B`0`B.f.a.h.#.d.I.d.b`c.#.C`J.A.`.c.``0.l.l.n`d.#.C.f.d.b.C`x.A.C`f.f.B.B`0.l.c.``0.d.f.f.p.A.B.B.d`0",
"`1`X.b.C.A.C.#`d.z.z`0`.`0.l.v.o.f.h.b.z.B`X.z.c`B.f`.`B.v`I`c.c.n.c.z`..I.C.h`d.B`N`2`A.A.C.z.B.d.z.B.z`X.A`D.v.k.A`h.#`0.d.B.d",
".b`f.b.z.d`..A`P.z.A`0.d.z.B`.`b`b.h.G.f.A.#.c.c.A.D.d.z.A.k.`.c.A.v.c.A`0`f.b.f.D.D.#.z`1`p.z`0.B.B`1.z.#`..#.z`..f.f`C`0.z.d.D",
"`1.C.C.z.`.k`f.z`L`b.A.#`X`B.D.a`2`z`4`8`1.f.d.B.z.z`0.B`C`c.l.c.z`.`d.z.z.#.m.f`Z`E.f`X.f.z.#.B.c.B.b.C`L`d.f.f.A`B.v.c.A`D.z.#",
".D.D.d`5`d`d`..B`0.f.z`Z.b.f.h.h.b.G.a.b.C.f`0.A`..n.c.c`c.B.B`c.#.#.d`A.d`.`X`B`B`Z`X.#.#`X.A.B.v.#`1.b.A.A`h.C`f.f.f.``..#.l`f",
"`Z.f.z.B.``l.A`d.r.d.z`Z`B`X`f.b.#`B`Z.b`D`1.d.#.`.v.B`0.z.z`d`n`b.b`l`f.z.B.m`1.A.d`A.#.p.f.c.l.A.z.C.b`R`Z.p.z`d`f.A.#.B`d.c`B",
".f.z.v.A.d`o.v.d.z.#.A.C.d`D.G.a.p.A.b.h`D.d.A.f.B.d`n.A.b`b`.`n`R.b`X`.`A.C.f`X.A`L.C`X.C.z`d`c.z.#.d.C.B`d`d.B`A`..f.d.I.v.A`G",
".d.B.B.`.l`c.n.#.v`d`.`X`0.#.D.D`Z`G.C`D`b.v.#.z`d`p.z.A`T`a`r.A.f.b.C`B`f.#.f`Z.h.C`1`B.#.z.d.I.d.A.A.b.b`d.#.v.z.A.C.#.B`.`X.C",
".#.``C`O`3.I.z.#`d.I.`.d`B.f`X`D.a.C.#.#.#.d.B.`.B`R.B`f`B.a`j.C`b.#.f.B.B.#`G.o.D`Z.A.A.f`f.z`c.`.A`f.d`T.m`T.k`..f.#`..d`1.b.b",
".d`0.d.B.k.c`..c.v`c.#`B.d`..A.f.#`1.z.l.B.c`0`u`S.z`..A`..D`q.z.#.v`D`5.d.#.f.b.b`E.A.d.#.f`5.l.c.v`d.k`X.z.d`5.A.A`d.#.#.p.h`Z",
"`0.B.c.A`.`l.z`C.`.l.B.v.d.#.z.f.#`B`..`.c`X.d`3`c`d.#.d`..C.d`o.f.d.d.l.c`X.h.i.b`h.#.c`X.#.B.c.B`..k`d`1.A.z.l.c.z.f.#.c.b.b.z"
};
