/* XPM */
static char *tex_wall_E_result_xpm[] = {
/* width height num_colors chars_per_pixel */
"    64    64      256            2",
/* colors */
"`` c #040204",
"`. c #4c3a24",
"`# c #341e14",
"`a c #6c563c",
"`b c #1c160c",
"`c c #5c4a34",
"`d c #3c2e1c",
"`e c #1c0e04",
"`f c #5c3e24",
"`g c #2c2214",
"`h c #0c0e0c",
"`i c #4c321c",
"`j c #2c1a0c",
"`k c #342614",
"`l c #54422c",
"`m c #746244",
"`n c #140604",
"`o c #241e14",
"`p c #443624",
"`q c #24160c",
"`r c #6c4e34",
"`s c #442e1c",
"`t c #442a1c",
"`u c #0c0a04",
"`v c #543a24",
"`w c #7c5a3c",
"`x c #5c462c",
"`y c #3c2614",
"`z c #64523c",
"`A c #0c0204",
"`B c #745e44",
"`C c #644a34",
"`D c #24120c",
"`E c #140e04",
"`F c #543624",
"`G c #241a0c",
"`H c #44321c",
"`I c #4c3e2c",
"`J c #342214",
"`K c #745a3c",
"`L c #1c1a14",
"`M c #3c3224",
"`N c #1c120c",
"`O c #5c422c",
"`P c #2c261c",
"`Q c #4c3624",
"`R c #2c1e14",
"`S c #342a1c",
"`T c #54462c",
"`U c #846644",
"`V c #543e24",
"`W c #64462c",
"`X c #3c2a1c",
"`Y c #644e34",
"`Z c #14120c",
"`0 c #040604",
"`1 c #4c3a2c",
"`2 c #1c1614",
"`3 c #3c2e24",
"`4 c #1c0e0c",
"`5 c #5c3e2c",
"`6 c #2c221c",
"`7 c #4c3224",
"`8 c #2c1a14",
".` c #34261c",
".. c #140a04",
".# c #241614",
".a c #6c523c",
".b c #442e24",
".c c #0c0a0c",
".d c #7c5e44",
".e c #5c4634",
".f c #3c261c",
".g c #0c0604",
".h c #140e0c",
".i c #241a14",
".j c #443224",
".k c #34221c",
".l c #745a44",
".m c #544634",
".n c #846a4c",
".o c #543e2c",
".p c #644e3c",
".q c #000000",
".r c #000000",
".s c #000000",
".t c #000000",
".u c #000000",
".v c #000000",
".w c #000000",
".x c #000000",
".y c #000000",
".z c #000000",
".A c #000000",
".B c #000000",
".C c #000000",
".D c #000000",
".E c #000000",
".F c #000000",
".G c #000000",
".H c #000000",
".I c #000000",
".J c #000000",
".K c #000000",
".L c #000000",
".M c #000000",
".N c #000000",
".O c #000000",
".P c #000000",
".Q c #000000",
".R c #000000",
".S c #000000",
".T c #000000",
".U c #000000",
".V c #000000",
".W c #000000",
".X c #000000",
".Y c #000000",
".Z c #000000",
".0 c #000000",
".1 c #000000",
".2 c #000000",
".3 c #000000",
".4 c #000000",
".5 c #000000",
".6 c #000000",
".7 c #000000",
".8 c #000000",
"#` c #000000",
"#. c #000000",
"## c #000000",
"#a c #000000",
"#b c #000000",
"#c c #000000",
"#d c #000000",
"#e c #000000",
"#f c #000000",
"#g c #000000",
"#h c #000000",
"#i c #000000",
"#j c #000000",
"#k c #000000",
"#l c #000000",
"#m c #000000",
"#n c #000000",
"#o c #000000",
"#p c #000000",
"#q c #000000",
"#r c #000000",
"#s c #000000",
"#t c #000000",
"#u c #000000",
"#v c #000000",
"#w c #000000",
"#x c #000000",
"#y c #000000",
"#z c #000000",
"#A c #000000",
"#B c #000000",
"#C c #000000",
"#D c #000000",
"#E c #000000",
"#F c #000000",
"#G c #000000",
"#H c #000000",
"#I c #000000",
"#J c #000000",
"#K c #000000",
"#L c #000000",
"#M c #000000",
"#N c #000000",
"#O c #000000",
"#P c #000000",
"#Q c #000000",
"#R c #000000",
"#S c #000000",
"#T c #000000",
"#U c #000000",
"#V c #000000",
"#W c #000000",
"#X c #000000",
"#Y c #000000",
"#Z c #000000",
"#0 c #000000",
"#1 c #000000",
"#2 c #000000",
"#3 c #000000",
"#4 c #000000",
"#5 c #000000",
"#6 c #000000",
"#7 c #000000",
"#8 c #000000",
"a` c #000000",
"a. c #000000",
"a# c #000000",
"aa c #000000",
"ab c #000000",
"ac c #000000",
"ad c #000000",
"ae c #000000",
"af c #000000",
"ag c #000000",
"ah c #000000",
"ai c #000000",
"aj c #000000",
"ak c #000000",
"al c #000000",
"am c #000000",
"an c #000000",
"ao c #000000",
"ap c #000000",
"aq c #000000",
"ar c #000000",
"as c #000000",
"at c #000000",
"au c #000000",
"av c #000000",
"aw c #000000",
"ax c #000000",
"ay c #000000",
"az c #000000",
"aA c #000000",
"aB c #000000",
"aC c #000000",
"aD c #000000",
"aE c #000000",
"aF c #000000",
"aG c #000000",
"aH c #000000",
"aI c #000000",
"aJ c #000000",
"aK c #000000",
"aL c #000000",
"aM c #000000",
"aN c #000000",
"aO c #000000",
"aP c #000000",
"aQ c #000000",
"aR c #000000",
"aS c #000000",
"aT c #000000",
"aU c #000000",
"aV c #000000",
"aW c #000000",
"aX c #000000",
"aY c #000000",
"aZ c #000000",
"a0 c #000000",
"a1 c #000000",
"a2 c #000000",
"a3 c #000000",
"a4 c #000000",
"a5 c #000000",
"a6 c #000000",
"a7 c #000000",
"a8 c #000000",
/* pixels */
".g`u...h.g`u`q`b`N.i`b`N`u`N`N`u`u.g`u`u..`4`E`E...g.g`Z`E`E......`0`E`N.....g..`N`u`n.g..`N`N`E`u`u.....g`Z`u```E.i`q`b..`0..`Z",
".h`E.h`Z`E`N`6`R`o`g.i.i`N`b`N.h.g.h`N.h`N`N.i`R`N`N`Z`4`b`N.h...h`E.....h`b`b`b`N.#`o`N`N`o`g.i`R`N`q`N`b`8`G`q.``X.i`b`N`Z.i`b",
".h.g`0...i`b`g.i.h...g`u`u`u`u`u`u.g`0.g`u`0..`b`b.#`E`````u`N`4..`2.i`o`o`8.i.#`b`R`k`s`J`q`g`R.i`N`R.``N`G`b`N`N`Z..`2`Z`Z`N.h",
"`b`b`q.i`b`N.h`N`E`E`u.g.c.g...h.h`u..`Z..`u.g.g.h`N`g`X.``g.i`o`b.#`G`R`S.``R.i`N`j`N`g`R`4`R`o`N`q`g`P`Z`4.h`E`E`N`q`g`b`N`N.h",
".i`q`8...h`E`N`N.h...h.h`N`E.h`b`q.h`2`g`2`N`N.h`Z`G.``d`p.j`S`o.i`Z.i.h`u`D.``k`b.i`Z`n`u`u`G...g.h`E`E`N`N`b`q`N.i`b.#`b.h`N`u",
"`q`q`N`Z`E...h`u`E`b`q`E.h`E`4`N`N`Z.i.i`E.h`o`g`N`b.h`````Z`o`R.i`b`2`Z`e`N`e`N`4`N`Z`N`e`b`8`E.h`N`E`N`R`G`8`R.i`o.i`E.h`E.h`q",
"`g`R.i`N.i`b`R`b`4`N.h.....h`E.h.g`u...h`u.h`q`b.h.h`b`o`g.i`q`Z`6.i`b`N`b`o`6`b`N`N`b`Z`u.h.h`N`E.....h`N`E`N`N`N`N`N`b`q`D`N`R",
"`o`R.i`o`G`R`g`N`u`E.g`0`0.g`u`u.g`u`u.h.h`E`b`N.h`E`4.i`G`6.``R`g`P`3`R.i.``M`J`g.k`b`q`q`R`b..`b`Z`N`b`e.h`o`b`G`o`N`G.i`b`E`N",
"`R`J`R`R`b`N.i`N`Z.#.h...g`E...h...g.g`u.h`N`Z`2`N`b.i`R`Z..`Z`Z.#.``M`d.``g`S.i`b`q.h.i.i`d`6`b`N`b.#.i`b.h`N`q.i`o`b.h`E.#`N`b",
".h`u`N`E..`Z`q`Z.i`G.h`E`u...c`E.c`u`u.g.g`N`b`o`N`N`b`q`N.`.``b.g`h`q`L`N`q`R.i`G.g.h`L`k`b.h`n.g`E`o`Z.g`u`u`h.h`b`2`N`Z`b`b.i",
"`0``.g`u...g`N.h`G.h.g`E...c...h`E.h`b.h`u`E`N.h`E`E.#`b`N`o.i`R.i`G.i`q`N`N`L`N`Z.h`b`g.`.h`q..`N`o`P`6`g`o`2`N`g`L.i.i`g`R`L.i",
"`N`J`g`8.i`N.i..`b.i.h`b`4`E.c..`u`u..`0...c..`E`D.h`G`R.i`j`b.i`o`R`k.`.``k`b`b`4`N.g`A.g.g`E`N.i`o`2`R`R`2`N`Z`b`b`b.i`o.i`Z`N",
"`g.``3.o`Q`R`P.i.i`g`G`Z.h`E..`h`E...h.h`E.h..`N`b`N.i.`.i.i.i`b`o`o`g`g.``S.f`g`G`N`E`h`u`u...h`h`E.h`E.h`u`E`N`b`2`G`q.i.i`b`b",
".i`R`b`8`g`G`e`b`b`4...h`E..`u..`4..`N`Z`E`N`N`b`N..`b`b`q`E..`E`N`4`N.i`R.h`0`u..`0`u...g.g`h`u.g.g`0.g`0`0.g`0```````0...i`N`b",
"`````````E```q..`````````````````````````````````````````````````````````0`q`n```````````u`E..```````````````0`u`P`R`o`E`b``````",
"`H.j`S.``S`G`q`R`g`J`q`N`E.g.g`u`E`n..`E`S.``R`S`R`G`o`j`j`G`q`J`R`J`X`X`s`O`x.o`p`j`S`M.j`.`X`g`Z..`q`k`3`..j`O`c`c`c`a.a`C`a`.",
"`Q`C`B`C`B.j`I.j`1.o`J`R`b`R`g.i`b`N`N`N`R`S`d.j`d.f`k`J`i`s`R`o`J`X`k`j`R`X`I`d.``N`G`P`3`S`g`R.i`b`R`o`g.``P.k`Q`V`v`C`Y`x.a.a",
".e`Y`Y.a.d`O`Y`z.e`.`Q.``J`S`o.#`R`G`N`N..`R`#`j.j`H.f`J.k`X`k`b`G.o`x`C`s`R`s`d`S`R`M`p`..k.i`g.``S`1`v.k.``.`V.e.a`Y`c`5.o`H.e",
"`Y.e`X`i`O`W`Q`C`x`s.j.j`H.j`7`V`H.f`R`q`R`s`J`G`8`g.``S`k.f`d`X.j`K`K`C`Q`d`Q.o`.`X.o.o`l`Q`d.j.j.j`p`O`H.``Q`W`x`U.n`B.a`O`C.a",
"`1`Q`k`D`D`G`#`e`R`d`s`v`3`k`g`Q`p`G`R`N`Z`R`g`b`N`R`g`G`g`R`N.i`j`D`n`k`k.``O`.`X.``S.j`l`Q`t`X`k`X`G`R`1`X`M`t`d`3`Q.o`Q`p.j`Y",
"`s`J`s`y`J`X`X.`.``Q`Q.o`.`d`R`2`S`6`N`b`b`Z`e.h`E`N.i.k`d`X`g`p`X`R`X.b`d`s`x`1`d`X`g`J`d`y`J`J`q`G.#`d`p.``V`Q`D`y.j`r`l`Q`d`O",
".``J`X`d`G.``J`g`Q.o`M`J`R.i`b`R`d`8`G`X`X`d`q..`N`G`g`p`t`R`R.f`c`v`l.o`d`1.o`3`R`o`X`p.j`J.i`R`N`q`D`Q`c`S.p`a`Y`C`a`K.a.d`.`l",
"`G.``X`8`g`k.i`N`s`X`R`o`N`j`q`R`X`R`R.``y.k`q.h`b.i`8`R`R`j`g`b`g`1`.`S`R`g`P`G`Z`N`N`j`X`g`q`N`e`R`o`d`1`X`l`x`l`1`z`C.a`r`p.j",
".j`p`3`k`X`X`M`6`N`E`N`E...h`b`N.h`o`N`b.h`Z`E.h`N.i`X`d`H.j.`.i`p`1`l.e.p`Y`c`p.j`s`d`R`k`g`q`D`R`J`J`l`c.j.j`I.o`.`y`Q`J`X`g.`",
"`l.a`C`V.b`d.``R`G`R`g.h`Z`R`o`N.i`b`b`R`d`3`b`b`N`k`H`X.j`Q`S`q.``X`X.o`I`d`X`R`g`g.``G`N`q`b`q`k`J`g.b`d.``p`1`1.o`k`t`Q`O`X`v",
"`N`S`X`X`X`J`j`q`g.i.i`G`R`X`3`g`R`b.i.i.j`S`A`E.g.h`J`g`g`3`3`.`p.o`..j.j.``N.i`S`J`X`J.j`1.i`J`8`g`S`M`X`p`l`1`d.j`X`J`X`H.i`g",
"``````````````````````.g````.g```u``..`u````.g`````n`b`4```N`k`S.``R`N..`u`E`u`u..``.g..`b`b`E`N`u`Z.h```u`N`b`E`N````````..`0``",
"`E`E`u.g`0```0```````0`````````0`A`0``````.g``.g`0.g`u.g`g`6.g```````````u`u.g````````````````````````````````````.g`u..`b`q`u.h",
"`N`N`2`b`N`E..`u.h`E`u.g`0`u`u`u..`u.g.g`u`u...g.g..`b`b`M`X`L`b`b`Z.g`E`2..`h`u`0`u`u.g`h`E`u`u`E.g`u`u.g`u.g.g`u`u`N`Z`q.i`G.i",
"`2`P`R`S`o`Z.h`u`u.h`u``.g.g...h`E`u`u.g```u`u.g`u`b.i`g`6`J.i`b`E`u.g`u.h.g.g..`u.g.g.g`u...g.g`u.g.h.h`u.g`u`u`E.h`b`b.i`o`R`o",
"`Z`b`Z.i`b..`b.h`u`u.g`u`u.h`Z`Z.h.g`u.g.g.h`u.g`u.g`u.h.i`b`N`q`b`N.h`E.h`Z.h`Z.h.h`u`E`N`Z`N`b`Z..`Z`E.h`b.i`b.#`g.``g.i`R.i`N",
"`o`q.h.g`u.g`Z...c`u.g.h`E`u.h...g`0.g`0`0`u`u`0```````````E.h`0`N`b.h`b`R.i`b`b`b.i`N`u..`N`Z`E.h`u...h`N`N`N`E...h`N`N`Z.h`Z`E",
"`N`2`N.h`E.h.h.h`E`u.g.g`u.g.g`u`0.g.g````.g.g``..`Z`b`Z`E`N`E.i`g`R.i`N.i`b.h`N`Z.h`Z.g.c`Z.g``````.g`u`u`u.g`0`0`0`u`u..`N`L`N",
"`E`u`E...g`0.h`N`h...c`u...c`u...h..`u`u`E`b.h`u`Z`q.h`E.h`E```E`o`N`N`N`G`G.h`N`E`u`E`u`u.g.g`u`u.g.g.g`u`u.g`u`E...h`u.c`E`b`N",
".h`N.h`Z.g.g..`E`N`E.h.h`E`E.h`N`E`u.g.g..`2.h`u`u.h`e`q`b`N`g`X`R`R`j`N`G.i`N`N`E..`N`b.h`N`E`u..`E.h`N...g.g.g`N.h.h`u.h`E.h..",
"`N`N`N`N`N`Z`N`E...c`u`u.c..`u.h`u.h`u.g`h`b`N`N`2`b`g`X`R.`.``3`S`k.``E`N`N`E.h.h.h...h`N`b...c.g.c`Z`Z`N`Z.g`u`N`Z`N`4`E`4`b`b",
"`b`b`E`u`E..`E.c`E`u.g`u`E.h`E`u.h.h`u.g`u`2`Z.h`Z.i.k`g`g.``g.``g.i`N`Z.i`N..`u`u.g`0`0`u.h`N..`u`E`e..`E.h`u.h`b`4..`u`u.g.h.h",
"`N`E.h..`u...h`E.h.h...g...h.h`N`b..`u.g.g.h`E`N`u`N`G`b`Z`N`Z`N`e`o`g.h`b`b.h..`Z`N..`u`4`Z`N.h.h`E.g.g`u`u.g```N`Z`b`N`q`g`q`N",
"```````````````0```````````0.g`E.h`u.g.g..`u..`u`u...h.h`E`u.h`u.g`u.g.g.g`u`E.g.g`u.g.g..`N`L`N`h`b..`0```u.g.g`N`o`b.i`G`2`E``",
"`q`o`k.i`b.i`N`E`e`E`E`u.g``````````.g.g```0`````````0``````.g````.g```0`````````````````0```N`A```E`b`2`k.h`E```u``.g....`J.i`G",
"`M`X`d`R`G`k`q`G`o.i`N`E`E`N`N`b`G`o`g.i`N`R`b`b`b.i`G`q`j`S`k`g.i`G`R`R`G`g...g`E..`Z`b`q`q`k`k`g.`.j`d`l`s`R`q`R`S`Q`d.b`C`.`p",
".i`b`E`N`N`R.i`q`g`b.g`4`b`q`G`q.`.j`X`g`q.``P.i`k.i`g`p`p.e`I`I`X`S`s`X`d`3`k`R`o`q`b.i`k`g.c`N`b.i`6.i`g.`.i`Z`q`S`k`S`S`g.i`R",
"`M`J.i`N`N`J`o`R`J`N.i`g`R`q`b`E`D`S`3`d`P.``g`8`S`g.j`I.j`S.i.i`X`p`R.i`R`q`g`g`6`G.i`k.``g`R`g`N`g`d`o`g`s`R.i`g`R`X.b.j`X`d.k",
".f`X`R`G`R.i`N`G.#`u`N`G`b.h...h`u`u`b`2`o`G`N`b`N`b.`.`.i`k.j`H`.`a.o`H`p`Q.j.``k.#`R`k`b.#`R`R`R`q`8`q`g`Q`S`g`Q`s.f`J`.`Q`O`O",
"`R`g`N`N`X`k`q`R`q.h`b.i.i`G`N`Z`4`L.#`Z`N`R`G`q.h.h`G`d`S`3.o.o`Q`l`C`l`Y.e`d`.`1`P`p`X`g`q`q`R`G.i`g`g`q.i.i`N`g`3`g`g`Q`p.o.o",
"`R`G`e.h`b`q`q`b`N`N`b.i`q`2`G.i`b`q`o`b`o`q`N`6`g`b`Z`N`g`X.i`p`l`..j.`.m`..k`d.o.``k.``d`X`p`3`J`g.`.j.``S`p`g`J`g`g`N`J`J`s`k",
"`E...g.g`````N`b....`q.i`G.i`b.i`g.i.i`G.i`b`N`Z`N`E.h`R.``L`P`d`S.j`d.b`Q`.`S.i`3`d`2.i.`.``3`X`S`X`d`Q`X.f`k.``1.j`H.`.j`Q.j`s",
"`R.i.i`J`J`X`d`j`b`u.h`q`R`b`N`b.h`e.h..`E.h..`N`E.g`u`b`R`X.``S.k`G`s`M`X`N`g`S`6`d`p`k.i`g`k.b`J.`.j.j`X`k`X`G`R`G`R.``d`1`I`d",
"`o`J`Q.e`c`Q`s`g`8`E`q`b`L.g`u`u`u.h`Z`u`4`b.g`Z`N.i`b`8`G`d`s`y`R`d`H`i`s.``g`R`g`R`J`b.h`N`b`R`G`N`J`d`g`q`b.``d.``o`N`R.j`s`q",
"`q`b`X`O`d.``H`#`G`n`b`R`R`E..`4`N....`E`b`R`j`q`E.#`g`6.`.``k`o`R`d`J`J`X`d`J.i`g`R`b.#`j`R`N.i`G`R`o`X`H.j`8`d.o.o.j`R`o`J.``J",
"`5`d`v`v.``y`s.i`N.g`A`N`N.g`u`D`N`u...h`D`R`g`R..`P`H`X.``g`g.i`q`o`8`N`R`X`S`k`R`N`N`b`N`N`q`g`R`g.f`F`5`p`g.``p.j`P`G`R`s`Q`Q",
"`q`e```````````````````````````````````````````````u`````````E````````````````.g```````````````0````````````````````````.g`e`N`N",
"`u`b`b`N`Z..`E`Z`E`u.g`u`Z`E..`u`u```u.g`0```````0`````0.g`h.g.g.g..`E`N`o`G`E`E`N`E`G`b`Z`b`q`N`E.h`E..`e`E`E`u`N`E`q`Z`q`Z`b`G",
".i`b.i`G.i`N`q`q`2`N`E`2`b.h.h`Z`N....`u.g...g`E`E....`E`N.g`u`u..`Z`N`Z`N`N.h`Z`q`b.i`q`b`R.i`u`4`b`N`N`b`Z.h`b`N.i`o`Z`N.#.`.`",
"`b...g.h`N..`Z`b.h`E`N`u..`u`u`u..`u`u..`0`u...g.g.g`E`N`N`Z`e`u.h`e`N`Z`b.h..`u.h`n`E.h...h`Z`u..`u.h`E.c`E.c.h`Z.i`b`2`N`h`g`k",
".g`0.h`b`b`Z`N`N..`u.h.g.h`u...h.h`u...c....`u..`u.g.c`Z`N`E.g`E.h`Z`G`g`q`L`E`4`b`N`N.h`h`N`b`2`o`b.i`b`Z.h`E`N`G`N.h`N..`u`E.c",
"`Z`4.i`g`g`N`N`b`N.g`E.h.h....`E`u.c.g`0.g`u``.g.c..`Z`q`L.h...h`u.g.h`N`Z`D.h`Z.i`b`N`N`Z`q`P`G`R`o`6`2`N`E.h`E.h`E`Z`E.h...i`R",
".i`Z`Z`E...h..`u`E.c`u`E`u.g.c.h`N..`E.g.g.g.g.g`u.g`u.g`N`b`Z`b.....g`0.h`E`u.g`u.h`E`N`b.i`o`N`N`Z`u`u.g.g.g`u.h..`N.h`u.g`g`g",
"`E.g`e.h..`Z`b`N`b`N`N.h`4`N`N`b.i`b.h`E`u..`u.h`Z`E`4.h`G`b.h.h.h`N.i`N`L.h.g.g`E.h`u.h`E`b.i`N`Z.h`N`b.h..`u`u`b.h`E`N`g.h`N`N",
"..`0`N`g`q`N`N`b.i.h..`u`b`2`N`b`Z`Z`u...g.c.h`G`N.h`E.i`g.i.i`N`E.h`E`b.i`G.h`u`4`N`N.h`u.c`b.h..`E.h`N`Z`N.h.h`N`q.i.i`N`Z..`E",
".i`N...``g`Z`E`N`b.h`Z`N`2`Z..`u`u`n.g.g`0.g`u`h`b`N`b`Z`Z.h`b`L.h`E.h`u.h.h...h`E.h`N`Z`b.#`o`E.g`0.g`u`u.h.....h`N`N`Z.g`N`b`b",
"`N`u`E`N`L`4..`Z...h.h`Z`b`N`Z.h.h`E.c...h`u.h..`2`b`N`2`G`N`Z`G`q`Z`q`N`b`L`u.g`N`N`Z...h`E.i.h.h`u.h`q...g`0.g`E`E.g..`E`b.#`N",
".h`E.h`E.h`Z`E`2`2`L`N`E`2.i`N`E`N.....h`E`N`b`Z`N`L.i`L`o`N`b`N`N`b.i`N`u.i`q.h`u`u`G`o.i`N`E.h`E`E.h`u`0`0.g`0`E`N`u`N`N.h`Z`u",
"```````````0`A`u.g.g`0```0`0````.g`0```````````0`A``.g.g``````````````````.g.g`````````u.g.g````````````````````````````````````"
};
