/* XPM */
static char *dbx5o8v-ceb8636d-e394-44ef-9778-fffcfe4ca53b_result_xpm[] = {
/* width height num_colors chars_per_pixel */
"    64    64      256            2",
/* colors */
"`` c #040204",
"`. c #7c261c",
"`# c #84562c",
"`a c #44120c",
"`b c #ac3a34",
"`c c #4c321c",
"`d c #7c3e24",
"`e c #641e1c",
"`f c #240a04",
"`g c #943e24",
"`h c #bc6234",
"`i c #44220c",
"`j c #943224",
"`k c #241a0c",
"`l c #64321c",
"`m c #a45634",
"`n c #7c4a24",
"`o c #7c321c",
"`p c #542214",
"`q c #6c421c",
"`r c #944a24",
"`s c #a4663c",
"`t c #340e0c",
"`u c #642a1c",
"`v c #643a1c",
"`w c #0c0e0c",
"`x c #c4463c",
"`y c #541614",
"`z c #8c3224",
"`A c #341a0c",
"`B c #ac4e34",
"`C c #8c3e24",
"`D c #542a14",
"`E c #a44a30",
"`F c #8c4a29",
"`G c #442a16",
"`H c #a45e33",
"`I c #441a14",
"`J c #24120c",
"`K c #a43e31",
"`L c #bc723c",
"`M c #a43a31",
"`N c #7c3a23",
"`O c #342213",
"`P c #140604",
"`Q c #94562c",
"`R c #742a20",
"`S c #ac4231",
"`T c #7c4625",
"`U c #943a30",
"`V c #94522b",
"`W c #b46e39",
"`X c #743a1f",
"`Y c #8c2e27",
"`Z c #74321e",
"`0 c #5c3a20",
"`1 c #74261e",
"`2 c #94462c",
"`3 c #843224",
"`4 c #34160d",
"`5 c #945e34",
"`6 c #7c2e24",
"`7 c #84522c",
"`8 c #5c221b",
".` c #744a26",
".. c #b46634",
".# c #6c2a20",
".a c #1c0e07",
".b c #4c1a14",
".c c #843e26",
".d c #64261c",
".e c #9c3e30",
".f c #ec5a4c",
".g c #4c2216",
".h c #9c3224",
".i c #b4563c",
".j c #844a27",
".k c #6c3a1e",
".l c #3c1a10",
".m c #5c2a1a",
".n c #2c120c",
".o c #040a05",
".p c #5c321b",
".q c #bc6e3c",
".r c #6c321d",
".s c #744223",
".t c #9c4a2c",
".u c #541e16",
".v c #8c3a29",
".w c #8c522b",
".x c #4c2a15",
".y c #a45e44",
".z c #9c5630",
".A c #bc4634",
".B c #2c0a04",
".C c #cc6244",
".D c #2c1a0c",
".E c #ac5634",
".F c #ac6638",
".G c #3c0e0c",
".H c #bc522c",
".I c #8c462b",
".J c #cc7e44",
".K c #3c2214",
".L c #1c0604",
".M c #b44234",
".N c #4c1613",
".O c #bc3e34",
".P c #943e34",
".Q c #bc6638",
".R c #943634",
".S c #7c322c",
".T c #542624",
".U c #642a24",
".V c #ac5237",
".W c #a45230",
".X c #ac5e34",
".Y c #ac423c",
".Z c #9c522e",
".0 c #84322c",
".1 c #842e25",
".2 c #1c160c",
".3 c #4c1e1c",
".4 c #842a24",
".5 c #b43e34",
".6 c #54321b",
".7 c #7c422c",
".8 c #6c221c",
"#` c #240e0b",
"#. c #d45244",
"## c #c47a3c",
"#a c #a4463c",
"#b c #843a28",
"#c c #6c261f",
"#d c #140e06",
"#e c #b44a3c",
"#f c #c47640",
"#g c #0c0604",
"#h c #c45e34",
"#i c #44261c",
"#j c #a4563c",
"#k c #944e34",
"#l c #cc4a3c",
"#m c #5c1a14",
"#n c #241614",
"#o c #9c5e34",
"#p c #74422c",
"#q c #d48244",
"#r c #8c562e",
"#s c #844625",
"#t c #9c3a30",
"#u c #9c4634",
"#v c #3c1611",
"#w c #0c0a04",
"#x c #5c1e18",
"#y c #c4663c",
"#z c #b4523c",
"#A c #945234",
"#B c #7c2e2c",
"#C c #8c3a34",
"#D c #8c5234",
"#E c #7c2a23",
"#F c #441612",
"#G c #ac3e32",
"#H c #7c4223",
"#I c #64221a",
"#J c #944228",
"#K c #442614",
"#L c #943627",
"#M c #64361c",
"#N c #a45a31",
"#O c #7c4e29",
"#P c #7c3620",
"#Q c #542616",
"#R c #6c4624",
"#S c #944e2c",
"#T c #34120d",
"#U c #642e1b",
"#V c #643e22",
"#W c #8c362a",
"#X c #341e10",
"#Y c #8c4229",
"#Z c #542e19",
"#0 c #a44e2c",
"#1 c #8c4e2a",
"#2 c #442e1c",
"#3 c #a46234",
"#4 c #441e13",
"#5 c #24160c",
"#6 c #a44234",
"#7 c #342614",
"#8 c #140a05",
"a` c #945a30",
"a. c #742e20",
"a# c #ac4634",
"aa c #b4723c",
"ab c #743e22",
"ac c #74361f",
"ad c #5c3e24",
"ae c #843620",
"af c #5c2618",
"ag c #b46a39",
"ah c #6c2e1f",
"ai c #1c120b",
"aj c #4c1e14",
"ak c #844225",
"al c #9c4234",
"am c #4c2615",
"an c #9c362b",
"ao c #844e28",
"ap c #6c3e21",
"aq c #3c1e10",
"ar c #5c2e19",
"as c #2c160c",
"at c #5c361c",
"au c #6c361c",
"av c #744624",
"aw c #9c4e2e",
"ax c #4c2e1a",
"ay c #a4623c",
"az c #9c5a2d",
"aA c #2c0e0c",
"aB c #2c1e0f",
"aC c #ac5a3c",
"aD c #ac6a37",
"aE c #3c120d",
"aF c #3c2614",
"aG c #1c0a05",
"aH c #54361c",
"aI c #14120c",
"aJ c #040604",
"aK c #a46a3c",
"aL c #c44a3c",
"aM c #541a14",
"aN c #b45a3c",
"aO c #642e24",
"aP c #ac6234",
"aQ c #ac463c",
"aR c #84362c",
"aS c #9c6234",
"aT c #240a0c",
"aU c #943e2c",
"aV c #442214",
"aW c #94322c",
"aX c #241a14",
"aY c #643224",
"aZ c #7c4a2c",
"a0 c #7c3224",
"a1 c #54221c",
"a2 c #6c4224",
"a3 c #944a2c",
"a4 c #643a24",
"a5 c #8c322c",
"a6 c #341a14",
"a7 c #8c3e2c",
"a8 c #542a1c",
/* pixels */
"`e`Y.naGaG#`#v.a#waG`P#`aE#x#Ean.Y#L#B#I#I#I#T#`aGaT#8#F`6.b#`#``1.1`S#W.U#G#G.R.d.naA`t.n#FaM#xaMaAaA#F#x.b#`aGaTaA#`.b#x#8.N.N",
"#Ia5#T.n.naA.3`8`Ra1`P`PaJ``aG`8#xaJ````#8aJ`P`P#gaG``af.0.a#g`I`3`1#EaQ#e#t`I`I#8#8#v.b.b`I.1aW#x.a`PaGaAajaE`PaG`faE#m.N#`.4.b",
"#x`U#b#C.#aJ#T`8#B.u#`aG.LaG`PaAaGaGaG.L`PaG.LaTaGaG.n.1#B#8aG.ua5aL#laL`K#v#8#8.L#8aT#I#t.e.O`b`1`taT.L#g.N.b`P`P#8aM#m#d.8aWaT",
"#c`6a..#.0#c#8`PaJ#T#TaA#FaE#gaGaTaG.L`PaG`P````aJ#`.b#E.3#8aT#v.8#..f`K.U`I#`aGaG#g#T`e.5`x.4`b#Ba6aAaA#`aE`.aG#T#m`yaA#T`Y.uaA",
"#E`I`````P#t.0``aT#v.b#T.3aA.LaG`P#w#`#`#g#T`8#c.NaJaA.uaE.a#`#v.N`K#G.d.3`4#8#8#`#g#F#I.5aW.8`M.R#v.n#T#TaT.8`1.4`eaT```1a5``.b",
".laA.a#``PaA.0#caJ#v#F#I.uaGaT#8`I.uaA#8aT`R.##x#B#c```8`I#`aA.baf.d.#.#`8.la1`8aG``.b.1an#E`R`Y.Y.e#B#v.n`P.G`eaEaJ#g#8`R.3``#v",
"aT#g#v#TaJ#g#8#B`IaGaA#c`1#`.n#m#E#E.3aJaM#c``````#EaMaja1#gaA`I#c.d#x.d.d.U.RaW.S#x.u#E.4#x.3.8a5`M#t#BaE#T#T``#gaG#T#B`I``#8#`",
"aG#8aE#B.0a1.n.N.0aGaAaE`R`R#c#c.G`I.u`P#F.8#`aT``.u`3#g.d.b#8`I#c#c.u.b`4aE#g#8#x.NaA#v#I#FaG`I.8`R.4an`Y#I#TaGaT```R#B``aG`P#8",
".aaG#TaW#t#t.3``.4`RaJ.n#c#caEaJ#8aAaE`P`P#I`1.n#g.3a0#`#F.##waA#F.d#I#8.a.n`8a1.a#8#gaA#F.naE#vaM.u`8`1`.aMaAaT`P`I.R.uaJaGaGaG",
"`4.a.u#B.8an.3``#x#B`waT.3.naJ#8.LaG`eaE#gaE#E#E.#`Y#EaA#8`1.baJaG#F.u.n.3#W.0an.0#F.naG#T#TaM.u.b#F#vaAaG#`#`aG.n#Ea5a6#`#`#`#`",
"`IaO#W#E`R#Ca1aG#T`I#`.u#F#8#T#`aA``#B#c``#`aT#F#x#x.b`t``#v`6aE`PaG.u#v#c#c#v#G`x.0#FaA`PaGaT#`#`aA.naAaTaG`PaJ.8.0af.l#8aJ#d#T",
"#a#b`8.n#va..Sa6#I#vaf.0``aA.3#`#`#8.u`R.L`P.LaJ````#8`faGaJ.8.8#v.L`I`faj.baM`M#Gana1#T#8#g`4.g.naJ.a.o``#T.3aha.aM.aa1afa1.d.P",
"`Z#8```P#g`Iah.n#c#``R`8``.n`4#`.n#`#x#EaA`P`P#g`P`P`f.LaG#g`t#x#F#`.uaTaG#v#x`Y.haf`4.n#`aJ.U`Ea7#b.Ua..v.e#C.##TaG#8aE.S.P`S`B",
"`J#`aGaG#8#v.d#`.daJ.0af``#`aG.n#v#v`YaWaAaAaAaAaT#`#v#T.L#gaT#T```I`3#8`P`P#`.d`R.laG.a#`aJ.v#Cas.ma..v.Sa1`J``#g`P`P#8#x#W`S`8",
".l#8#`#```.da.`J#C.aaf.v.laJ.n#vaf#t.A.h.b`t#Fa1.n#`.b.u#`.B`yaG``a..daJ.a`P#8.n#vaAaGaG#`aJ#u.c``aJ#`#8``aJ`PaGaGaG`P.n.d.#.#`p",
".U.gaJ.n.a#Y.m.l.VaY``a.aU.Sa1`8.e.ean`j`6`R`R.baGaG`faA#8.N`1.o#v#EaG#8#`#``P``.a#`#8.a#8`J`E`B.g#Q.g.a#``P.a#`aGaG#8#v`8`pajaj",
"`p.v`N.T.S#Y.o.g#zaO``#8.ua.aj.u`8#`.a`e#L`Y#I#TaG`PaG#```.8`RaJ`6.daJ#`#`#`.gahaq#g.aaG#`.m.V.C.IaYaVaG.a.a.L.nasaGaGaA#v`4`4.n",
"``.n`N#PauaOaJ#4#J#4``aGaJ``#`#`#gaG#`#T`I`I#v`faG`P#``faG`3#F.u`o`J.a.a#`#d`Z.E.I#4aG#d`4.m.c.V#Y.xa6.a.a#``J#v#4`4#`#8#8`P`P#g",
"aG#w`I.ga6#U`4aqakaq.a#8#8#8#8aGaGaG.a#`#T#T.naG.n`f`````R.#``.d.#ai.n`J`J`J`NaN`maY.a`J.nasa6ac.W.k.a`J.aaG.a#QaUah#`aG`P#8`P#8",
"`J``aj.gam`laq#4`Na6.n.a.a.aaGaJai`A#`aG.a`f.a#`#T`IafahahaA``ahae#5#4`A.l`4akaw#S#p`P`J`J.a`4aV#u.W#Xa6.a.aaAa1#J.raA#`.a.n.n`4",
"#8#g#QaqaVac#X#QaY`J#5#`.aaG`Jarar#Q#DabaG`JaG#8aG`p#P#Q#8aG.m.t#Uaias#`#Xam.I`dab#H#n#w`J#8#``J`XaNawam#``J#4.m`u`u.g.l#`aA#`.a",
"```4#U#g`4ak#i.r`N```J`Jai`J`lak.I#YaC.yaqas.a`P#g#4#```aJ`I.c`Cai#`.a.a`A#U`das`J`la3ar.Kas#8#5#Uaw.Eau.aaG`4#Q`uaf.#a..u`JaG#8",
"``.r.r``.a#Yauar`F`w#5`J`JaqauaV.laq``#Aab.nasaGaG.#.n.aas.r`Eawam`J`Aas.n`iauas#8#8au#Z#nas#8.a`l#Y.kaOas#w#`#T#4ajaj.#af`4#`aG",
"`4#bam.oas`CaV`Aauas`J.aai`J#Q.x#nasaJau#jaV`4#8.naeas`J.l`Daf`d`r`l#daJ#5ab.Z.D.a#`.l#daG#8.a.l`N`Xama6#`.a#8aGaA#v#v#daG#`#8aG",
"aj`C#Y#U#U`X.n.rar#dai#d.a#daq`F.x.D`J#A#Naq`4aGaGah.g``#``J#w#8`D.Z#Har`X`rakam``#ZabaJai`JaVab.W.Z.k#``J.a`P#8.a#v.n#`aG`P#g.l",
"`C`E`E`E`Nam``ab#Zai`J#5`Jaias#S#s#X.k...7``.o.a#gas#U`l`J#8.a.aaJau`r`dar`J`A.k`v`T#Z.aai#`.K`X.I.zay.x.a`J#``PaG`4`4aGaGas#Qa.",
".H#J`C#P`iasaJ`X#Z#w.K`O`J`J`A.k`h`Fap.maV`d`X.l`J#8`P`X`T#X.D#8asas``````.a.a`i`T.6``ai.a#d`J`i.p.p`d#s#M`w.aaG.a.l`4#`#8.laf`g",
"#P`Zaf.lasaGaGau#kap`G#5ai.a`A`A`TakaJ#w#8#Qak`F#K`J#8``#H`T`k`J.a#`.a.aaG.a#8.D.p#8#g.2.a#8.a#5asas#`aqab`d.l#w.nas`J#```.uah`o",
"af`I`J#``P#8`Jau.zaZaF#8`J#5as#5amat.D.a.a``.l.z.6#d`J#wasatasaias#5.a#8.a#`.aasam.s.D#w#5#5.a#w.aai`J`````N#k#5#g`P.aaJ.kac.baf",
"aj.aaG#8#g.a`D`Xam`Jasai.a.a#d.aaq.p#X````#8aV#S#M#d`J``.p.paJ`J.D`Aas.a.a#8#8#```#V.j#7#d.Dai`A`A.D#5`k.a```Xak`AaV`D#1`m.laJaj",
"`Nai#``J#8.n`laq#dai#8aG#8#8#8#was`DataYar#K.gam#K.DaJ#M.w#K#d`O.Kaq#5`J.a#8#d#8#d``.x`7.p``#5`Gav`7a2#K.D`J```l`F`F.W#y`F``#w.g",
"auamam`i#8#4#Q.aaG#8#d.a#d#8.a`J#8asaV#M.pam.las`J#5ai.j.xai#M#Z#X#5ai`J.a.a`J.a#8.a``.p#raIai.K`T`Vaaa`aq#5.aaJamar#S.Q..`d`l.g",
"#w#`.l`A#w`i.xai#8.a.n`J.a#d.a.a#8#8#g``````aJ#8ai``.pap```A.p`G#w`J#5`J`J.a`J#5#8#8.a.a`5`cas.D.6#1.F`W`Q#Z`J#d.a`A.s#sa3ak`l`4",
"aG#w#w.a```D.g#8.aas#K.D.a.a.a.aas#8#8aG#d`i.p.x`A```nav``#5.a#waGai.a#5#X#5.aasai.aaJ#K#raF.D#X#K`T.j#Ha`a2#5.a.a#Z`F.p.D`JaJ#w",
".a.a#8#8.x`l`J#d.aamaV.a.a.a#8#8as`Aai#8as.k#1.w#X#5a`#V``.a`J#8#d.a#8.a#5as#d`J`J.a``#O#O``#5#5#X.p#M#X#XaF#X`J`J.6ap.K#5`waJaJ",
"aV#5#d#Z#s`J#d#8`4ataV#8.a.a.a`J`J.K`A#5.kab`Tag.Fao.`#K#8aiai#d`J`k#X#5ai`J#d.n`J#8asa`ad``ai#d`A#K#5.a.aai.D.2.x`v#K#5ai.k`T`l",
"`T#M.D.sap``.a#8.D`A.D#8aG#daG#5`J`A#w.x#H`F`T#Na`at#naiai#5#5#5aFat#2.Dai`Jai#5.a`J#5.j`v```J.a`J`J`Jai.a.a.D`v#oap#5aI.j#sau#H",
"`X#S.s`TaH.a`J.a#8.a`J.n#d#g#was#X.K#Maram.x#M#M.D``ai`J#5`k.Dasaq`G.K#5aiai.D`J.a#5.a.k#r.6.D`Jai`Jaiaiai.a#X`n`TaI.o`T.j````.a",
"`l.Zaz.jat.D#5ai#8#8asaq`AaV.g`lab.s.k`J#w`Jas#5.Dai#d#5aF#Xas`k#8``ai#X.D#5`Jai#5aq.D.p.z.`.K#5.D.aai.aai#d#5ax.xai.Kaz#K``.a.K",
"#s.z#1ataBaJ````#8#5`J.l`4.laq.makataJ#g.a#daGaG.a#8#d`JaHaF`O.D.aaiai`AaFat#K.D.a.Kap`X#Z.K#X`J.a#8.K#K.D.aaJaq#Mai.Kaz#X#w#5.K",
"ao#H`T.w`nat`v`v#H#H`iaJ#8#g#g`J`Daq#`#8#d#8#8#8#8#d#8#5`A.D#5`J`k`Jai#5`A.xaF.D#w#Z#H`iaJ#d#8.a.aai`A.x#Xai#wasao.x#d`T.saF#X.k",
"#Kai.K`Va`.s#s#H#1#S#sar`4#g#8#`#Qam.a.aaG.a#d.a.a`Jai#8#8ai#8#X`c`k.a`JaiaJ#8.a#8#V.6.o`J#8#8.a.a#8#w#8aiai.a``#r#V#d.l`v.w`q`T",
"`J#5.K#Z.a````aJaq#U#Hakau#Q#`aJ.gau`w`J`J#8aGai.aaiaiai`Jai.D`q#V#dai#5.a#d.a#g#5.jat#8ai.a.a.a.2#5`Jai.aai`J```T`V#5ai``as#Kas",
"ai#5.xab#K.a.a#8#``JaG#8`4`l#4#8.naeau.DaGaG#d`A.aaJ``````aJ`G.x`O#8`J.D.a#8ai.D`T`7.D.Dai`Jai.a#5.D#5ai#d.a#5aq#X#S`Qavat#d``ai",
"aiaiam`q.K`P#d#8#8#8.a#8.aauaq#8`Aas.mar.l``.n.p.x.K.p#V`qaxaJ#d`J.aai`J#8#X#Zao`H`0.a.D#5ai#5asaiai#d.a.a.a.Daiai`i.sao`#`7`O#w",
"#5ai`A`G`O`J`J.a#daG#8```D`F#8`J`J#d#g.l.m`Dam`X#H.s#H.6#M`Qav`w``.aai#d.a.x`n.z`v#K#XaI#8ai#X.D.a#5#X#5ai.a#d#8`Jas`J``#X`7aoaB",
"#Kaias`i#Xas`J.a#d.aaG```l#s``.Dasai.aaJ#8.l#4`i`i.K```````J.w`QaHaJ.a.a#5#X.x`Das.x.k.p`v`0aHaqai.K#2aBaiai.a.a#8as#Max.D```v#O",
"`v`w.xax`Jai.a.a#8#8#8``ap.j``as`J`Jas`A`J#d.a.a`Jai`J#X.D#d``#K`#av#d`J`J`J#8#w.a#8amavaP`T`G.Daiap`n#X`J`J#d.aai.k`H#Vai`J```T",
".Kai.K.Kas#5`J.a.a.a.aaJ`laoaIai.aas#K`T`X#5#d#8#5#5#Xax#X#5#5``at#OaB.a`A.D.aaG#8#8#was.paq.a#g.D`VaDax.D`k.a.Dap`H.Z.xai.a#5#M",
"`Jaias#5.D`A`Aas.a#`#5.a#8#1#M.D.K#K`iap.z`T#sav#Xai.6`7`0`O#5`A.p.D#5#d`J#X#5as.a#8`J`J`i#X.a.aaqab.jao.pai.Datab`l`4#5`J#w`4ap",
"#X#g#d`P`Jaqas.a#8#d.a.aaJ.k.w.x.6#K#Xas`T.X`VaPao`va`.q`7aHaIap`q``aFatap`vaq.D.Dai#5.nap.Kaiai#Z#M`P`i`T#K`i`ias#d#d#8aG#g`Jar",
".k#d.aai.a#daJ`J#X`J.a#d.a`Aaz`5`kaF#5#5#H`T``am#1..ag.jax.K``.jav``#Xap`n#1ax#5ai`J.K.j.s#d`J`A.s.x#w``#ZabaF#g.a.a.aas#5`J#8aq",
"akau.Daqas#Taq`l.k.D`J#X.K#X#Vaa#O.K`O`T#oax.a.oaqau#K#X#5.a```q.s``#8`i`D`T#Z#5ai.aap`Q.K.a#w#Kap`O.a.a#`.p.xai#5#8.D#K`i.x#`#8",
"`l#M.xaV.s`V.Iab.p#Xaiaq.K#X.D.p#oa`aS#f..`0as`A`J`i.xas#5ai``.sa2``.a#5`i#XaFas#8#8.xat#d#5#8.x.waI#X#XaJaq.s.6#X`J.D#Z.j.x#d.a",
"au`v.o`4av#1.I#K#X`J#d#5ai.a#5aJ#5ab.waz`V.s`DaqaJ#4#Zaq.Das``apav``ai#8.a`J.a.a.a.a.a#s`vaJ#5.k`5`k.D#X.a```T`QaF#Xas#M.w.K#8.a",
"ab.k```J`J#`as.D.a.a`J#5#5#5ai`JaiaJas`J.D`A.K.aaJaq.x#5as`JaJ`D.jas.a.a#8.a#d.aaiai#5.p.w#Xai.x`V.6#w``aJ.K`q#3.6`J#dar.s.K.a.D",
"#ZaF.a#d.aas.n.a#8ai#5ai`kaFasai.aai`Jas`J#d#8#8#g`A`D`J.a#d#8.g`F#Zai.aai.aai`J.2ai`Jai#rap#dai#Map#V.j.s#Oao`v`G#5aiaq.j.6#w#5",
"ar#X#d.a`w#8#5#5.aai#5`Jai.D#5aBaBaxaF`k.K#5ai#5#8`A`D.D.a`J`Jau#Nat#X.D#5.a#5#dai.D.D`Aaz.`#d.aaq.x#Z`v.p.x`AaB#5#5ai.6.zap#5as",
"#Z#Xai#Zap.sap#X`Jaiai#5`kai`k#X.K#Kap`Q.satat#K#wamamaJ`Jam#H#H.6.Daq`O#8ai`q#V#7aF`q`7#3at.a.aai#8``````aJ#8ai.a`Oap#1#N`n.K`J",
"#M#Xaq.s.j`rao`v#Xai`J.D.D#XaF#KaF.Kap.j.p.x.paxaJ`T.p```k.k`Fam#w`J#5#d#Xab`QaD`s#RaD.J.FaH#5#5#5`J#5ai#5#5.D`k#5ap`H`L.sat#Zai",
"#H`A.x`l`````i#H#M#5ai`J.Dax`0aH#X.D.a````aJ.a#5`J#r`0#8#Xau.K.o.a.a``.x`T.s.Daq`n.F#q##`W`#`JaB#X`G#Z.xaB#Xaxax`vaD.J`Q#K.x.K.D",
".s``.pamaJ.a#g`A.j`T.Kai`Aax.x.Das`J.aaiai.a``ax#1.s#5.a.6#Hai`J.a#5.s`F.K``.aai#d#1#1.j`H#3apax#M`Gam.kapapa`#3`L#f#3`v#K`A.aaq",
"aq`iab.D#d.a.a``as#M#H.p`kas`w#5#5aI#8as#5.D#H#1.p#d.aaJ.j`naI#5as.j.Fat.o.D#Xasaq.kaq`iam#1..`V#Z.a.a`i.z..#Nao.jap.k.k#5#8#w`l",
"`A`F.xaJai.aaiai#d``#K#M#Z#Z#Z.xap.sapat.x.jaz.x``#5`J#X#1.k.Das#Z`H`W`0#Xata2.xav.p#wai.a.x.I#Ham`Jasam`Fabas``.aamam#Z.K#w.g`l"
};
