/* XPM */
static char *dbejnlw-374a59f3-2fe7-40f1-9367-36eed77a2821_result_xpm[] = {
/* width height num_colors chars_per_pixel */
"    64    64      256            2",
/* colors */
"`` c #040204",
"`. c #64625c",
"`# c #34322c",
"`a c #94928c",
"`b c #7c7a74",
"`c c #4c4a44",
"`d c #1c1a14",
"`e c #6c6e6c",
"`f c #3c3e3c",
"`g c #848684",
"`h c #545654",
"`i c #242624",
"`j c #0c0e0c",
"`k c #acaaa4",
"`l c #040a0c",
"`m c #6c6a64",
"`n c #3c3a34",
"`o c #9c9a94",
"`p c #84827c",
"`q c #54524c",
"`r c #24221c",
"`s c #7c7674",
"`t c #4c4644",
"`u c #948e8c",
"`v c #645e5c",
"`w c #342e2c",
"`x c #747674",
"`y c #444644",
"`z c #8c8e8c",
"`A c #5c5e5c",
"`B c #2c2e2c",
"`C c #0c0604",
"`D c #6c6664",
"`E c #3c3634",
"`F c #847e7c",
"`G c #544e4c",
"`H c #241e1c",
"`I c #746e6c",
"`J c #443e3c",
"`K c #8c8684",
"`L c #5c5654",
"`M c #2c2624",
"`N c #040604",
"`O c #646664",
"`P c #343634",
"`Q c #949694",
"`R c #7c7e7c",
"`S c #4c4e4c",
"`T c #1c1e1c",
"`U c #141614",
"`V c #9c9e9c",
"`W c #74726c",
"`X c #44423c",
"`Y c #8c8a84",
"`Z c #5c5a54",
"`0 c #2c2a24",
"`1 c #646264",
"`2 c #343234",
"`3 c #949294",
"`4 c #7c7a7c",
"`5 c #4c4a4c",
"`6 c #1c1a1c",
"`7 c #141214",
"`8 c #c4bebc",
".` c #0c0a0c",
".. c #6c6a6c",
".# c #3c3a3c",
".a c #9c9a9c",
".b c #848284",
".c c #545254",
".d c #242224",
".e c #04060c",
".f c #747274",
".g c #444244",
".h c #8c8a8c",
".i c #5c5a5c",
".j c #2c2a2c",
".k c #000000",
".l c #000000",
".m c #000000",
".n c #000000",
".o c #000000",
".p c #000000",
".q c #000000",
".r c #000000",
".s c #000000",
".t c #000000",
".u c #000000",
".v c #000000",
".w c #000000",
".x c #000000",
".y c #000000",
".z c #000000",
".A c #000000",
".B c #000000",
".C c #000000",
".D c #000000",
".E c #000000",
".F c #000000",
".G c #000000",
".H c #000000",
".I c #000000",
".J c #000000",
".K c #000000",
".L c #000000",
".M c #000000",
".N c #000000",
".O c #000000",
".P c #000000",
".Q c #000000",
".R c #000000",
".S c #000000",
".T c #000000",
".U c #000000",
".V c #000000",
".W c #000000",
".X c #000000",
".Y c #000000",
".Z c #000000",
".0 c #000000",
".1 c #000000",
".2 c #000000",
".3 c #000000",
".4 c #000000",
".5 c #000000",
".6 c #000000",
".7 c #000000",
".8 c #000000",
"#` c #000000",
"#. c #000000",
"## c #000000",
"#a c #000000",
"#b c #000000",
"#c c #000000",
"#d c #000000",
"#e c #000000",
"#f c #000000",
"#g c #000000",
"#h c #000000",
"#i c #000000",
"#j c #000000",
"#k c #000000",
"#l c #000000",
"#m c #000000",
"#n c #000000",
"#o c #000000",
"#p c #000000",
"#q c #000000",
"#r c #000000",
"#s c #000000",
"#t c #000000",
"#u c #000000",
"#v c #000000",
"#w c #000000",
"#x c #000000",
"#y c #000000",
"#z c #000000",
"#A c #000000",
"#B c #000000",
"#C c #000000",
"#D c #000000",
"#E c #000000",
"#F c #000000",
"#G c #000000",
"#H c #000000",
"#I c #000000",
"#J c #000000",
"#K c #000000",
"#L c #000000",
"#M c #000000",
"#N c #000000",
"#O c #000000",
"#P c #000000",
"#Q c #000000",
"#R c #000000",
"#S c #000000",
"#T c #000000",
"#U c #000000",
"#V c #000000",
"#W c #000000",
"#X c #000000",
"#Y c #000000",
"#Z c #000000",
"#0 c #000000",
"#1 c #000000",
"#2 c #000000",
"#3 c #000000",
"#4 c #000000",
"#5 c #000000",
"#6 c #000000",
"#7 c #000000",
"#8 c #000000",
"a` c #000000",
"a. c #000000",
"a# c #000000",
"aa c #000000",
"ab c #000000",
"ac c #000000",
"ad c #000000",
"ae c #000000",
"af c #000000",
"ag c #000000",
"ah c #000000",
"ai c #000000",
"aj c #000000",
"ak c #000000",
"al c #000000",
"am c #000000",
"an c #000000",
"ao c #000000",
"ap c #000000",
"aq c #000000",
"ar c #000000",
"as c #000000",
"at c #000000",
"au c #000000",
"av c #000000",
"aw c #000000",
"ax c #000000",
"ay c #000000",
"az c #000000",
"aA c #000000",
"aB c #000000",
"aC c #000000",
"aD c #000000",
"aE c #000000",
"aF c #000000",
"aG c #000000",
"aH c #000000",
"aI c #000000",
"aJ c #000000",
"aK c #000000",
"aL c #000000",
"aM c #000000",
"aN c #000000",
"aO c #000000",
"aP c #000000",
"aQ c #000000",
"aR c #000000",
"aS c #000000",
"aT c #000000",
"aU c #000000",
"aV c #000000",
"aW c #000000",
"aX c #000000",
"aY c #000000",
"aZ c #000000",
"a0 c #000000",
"a1 c #000000",
"a2 c #000000",
"a3 c #000000",
"a4 c #000000",
"a5 c #000000",
"a6 c #000000",
"a7 c #000000",
"a8 c #000000",
/* pixels */
"`#`f`t`f`q`y`t`5`y`y`J`y`B```f.g`P`5.g.g`c.g`X.g`5.#`c`S`2.j`0`B`2`f`t`f`q`y`t`5`y`y`J`y`B```f.g`P`5.g.g`c.g`X.g`5.#`c`S`2.j`0`B",
".#`y`5`y`G`y`y.g.g`f`P`S`i``.#`f.j`A`q`y.c`S`2`P`y`#`f`G.g`B`2.#`n`t`y`y`G`y`y.g.g`f`P`S`i``.#`f.j`A`q`y.c`S`2`P`y`#`f`G.g`B`2.#",
".g`c`5`S`y.#.#`P`n`f.#`S`2```f`f`M`5`q`y`f.g`X`P.#`P`J`f`X`f`J`f.g`5`5`q`y.#.#`P`n`f.#`S`2```f`f`M`5`q`y`f.g`X`P.#`P`J`f`X`f`J`f",
"`f`J`S`h.#`c.g`T`B`S`G`S`2``.#.g`0`f`S.g`2`n`y.g`2.g.g`P.g`X`f.#`f`f`S.c`f`c.g`T`B`S`G`S`2``.#.g`0`f`S.g`2`n`y.g`2.g.g`P.g`X`f.#",
"`q`S`5`t.#`X`y.#`2`5`G`y`2```P`y`P.#`P.#`n`y`J.g`X`y`f`h.g.#`P.#`q`G`5`y.#.g`y.#`2`5`G`y`2```P`y`P.#`P.#`n`y`J.g`X`y`f`h.g.#`P`f",
".c.i`y.#`P`f`f.g`y`n`f`t`B```P`f`w`P`w`f`y`5.#`f`y.g`G`h`X`f`J`P.c`Z`y.#`2`f.#`y`X.#`f`c`B```P`f`w`P`w`f`y`5.#`f`y.g`G`h`X`f`J`E",
"`T.d`T`T`6`r`T`0.j`T`T`6`U``.d`6.e`7`U`d.d`i`T`6`r`T.j`i`T.d`T`H`T`i`T`T`6`r`T`M.j`T`T`6`U``.d`6.e`7`U`d.d`i`T`6`r`T.j`i`T.d`T`T",
".``N```````````````l`j`7`7`j`j`j`7`j`j`j`7`C`7`7`j`j`````7``.``N.e`N```````````````l`j`7`j`7`j`j`7`j`j`j`7`C`7`7`j`j`````7`N.``N",
"`Z`S`A`W..`e`g`p..`Z.i`S`5`5.g.#`P`2`f`t.c`S`S.c`S`1`O`A`y``.j`A`Z.c`A`W..`e`g`p..`Z.i`S`5`5`X`P`P`P`f`t.c`S`S.c`S`1`O`A.g``.j`v",
".c`5`O.a`k.b`V`8`z`O.g`n`P`P`M`B`i`d.d`2`f.c`y`f`y`A...i`#``.j`O.c`c`1.a`k.b`V`8`z`O.g`n`P`P.j`B`i`6.d`2.g`S`t`f`y`A...i`#``.j`O",
"`y.i`D`g`a.b`g`Y..`A.#.#`2`P`f`E`B`2`B`B.#.#.#`f`t.c`q`S`P```P`.`f.i`O`g`3`p`g`Y..`A.#.#`2`2`f`E`B`2`B`B`n.#`P`f`t.c`q`S`P```P`A",
"`Z`h.i`W`x`e`F`e`t`q`q.#`n`P.g`f`2.#`n`f`5`y`P`P`X`y.g`G`f```2`A`Z`h`A.f`s`e`F`e`t`q`q.#`n`P.g`f`2`n.#`f`t`y.#`P.g`y`X`S`f```2`1",
"`5.c`h.i..`O`O`O`1.c.i`h`f`E`P.#`X.g`f`y`h`5.#`2`P`P`y`h`J```P`A`5.c.c.i..`O`O`O`1.c.i`h`f`n`E.#.g`X.g`y`h`5.#`2`P`P`y`h`J```P`A",
"`h`h`q`S`G.c.c`.`W`h`S`q.g`P.#`y`y`h`5`t.c`c.#`S`y`J`h`I`y```P`1`G`h`q`S`q.c.c`.`W`h`S`q.g`P.#`y`y`h`t`y`h`5`n`5`y`J`L`e`y```P`1",
"`h`y`J`y`S`5`c.c`m`v`5`y`5`n`f`t`L`1`h`O`1`q`S`G`A`h`L`e.g```2`e`h`t`f`5`5`c`5`q..`v`y`5`c`P`f`t`h`1`h`D`1`q`S`q.i`h`h`e.g```2`e",
"`X`5`5`5.#`f`S`G`5.g`f`J`f.#`y`S`1`1`m.f`D`..c.i..`A`f`S`E```2`.`f`5`5`c.#`f`S`S`5.g`f`J`f`f`y`G`1`O`m.f`O`..c.i..`A`J`S`E```2`1",
".g`c.g`X`f`t.i`S`5`P`i`#`f`y`5`t`5`A`e`O...c`h`O`p`W..`v`P```P.i`J`5`y`f`f`c.i`G`5`P`i`2`f.g`5`y`5`A..`O`e.c`h`O`p`W..`A.#```P.i",
"`X.g`f`f`5`S`S`J`f.#.#`P.g.g`S`c`1`..i`I`R`b`K`Y`g`p`K`x`y```2`h`f.g`f`J`S`5`5`f`f.#`n`P.g`y`G`c`1`.`Z`I`R`b`K`Y`g`p`K`x`y```B`Z",
".g`c.c`S`J`X`5`c`f`P`#`f`S`S`G.i.f`O`e`u`z`z`V`p`A`4`o.b`c```B.c`J`S`q`S`f.g`S`c`f`E`B`f`S`5`q.i.f`O`e`u.h`z`V`p`A`4`o.b`c```B.c",
".g`S`S`t`f.g`h`S`f`5.g.#`c`y`y`L`.`O`e.f`I`R.b`F`W`4`Q`W`t```B`A`X`5`S`t`f.g.c`S`J`y`y.#`5`t.g`h`.`D`e`x`e`F.b`F`W`4`Q`W`t```B`A",
"`c.g`5`S`y`5`S.c`S`G.g.#`G`S`y`S`S`t`q`O`Z`1`O`W..`m`b`1`P```2`D`y.g`5`S`y`c`q`G`S.c.g`f`G`S`y`S`S`y`G`O.i`.`O`W..`m`b`1`P```2`m",
"`5`f.g`f.g`h.c.i`Z`y`X`5`S.g.g`c.c`5.c.i`A`h`A`I.i`5`L.c`B```P`1`y.g`X`f.g`L.c`A.i`y`X`5`S`X.g`c.c`5.c`Z`v`h`A`e.i`5`L.c`B```P`1",
"`U.d`i`6`r`0`i.j`0.j.j.j`r`T.d`i.d.d`r`6`T`7`i`0`6`T`i`i`6```r`B`7`T`i`6.d`i`i.j`0`M.j.j`r`6`i`i.d`i`r`6`T`7`i.j`6`T`i`i`6```r.j",
".`.`.``j.``j.``N.``j.``N`j`N`````````N`N`C`j`N```l.``N`C`l`j.e```j.`.``j`j`j.``N.``j.``N`j`N`````````N`N.e`j`N```l.``N`C`l`j`l``",
"`S`y.g.g`S.i`O.i`S`y`y`5`P``.#`q`S`q`5`S`y.g`J`f.g`f`X.#`f`f`J`y`S`y.g.g`S.i`O.i`S`y`y`5.#``.#`q`S`q`5`S`t.g`f.g`X`f`J`f`f.#`X`y",
"`2`P`P`#`X`y`S.g.g.g`#`B.d```f`S`f`2`2`J`P.j`B.j`i`i.j`B.j`#`B`P`2`P`P`#.g`t`S.g.g.g`2`B`r```f`S`f`2`2`J`P.j`B.j`i`i.j`B.j`#`B`P",
"`B.g.#`2.#`f`J`X`X`f`P`E`i``.g`S`M`i`i.#.#`i`B`B.j`B`M`B`B.j`M`B`B.g.#`2`n`f`J`X`f`f`E`P`i``.g`S`M`i`i.#`P.j`B`B.j.j`i`w`B.j`i`w",
"`2`X`f`f`y`J`y.g`P.g`n`f`B```y`S.d`i.d`P`P`2`2`0`B`w.j.j`i`B`B`w`2.g`f`f`y`f.g.g.#`f.#`f`B```y`S.d`i.d`P`P`#`w.j`B`w`B.j`i`B`B`w",
"`P`y`t`X`G`y`y.#`n`f`B.#`B```f`5`M`6`T.d.j`B`0`i`2.j.j`B.d.j`2.j`P`y`t`X`G`5`y`f`n`f`B.#`B```f`5`i`6`T.d.j`B.j`i`2.j.j`B.d.j`2.j",
"`w`f`f`f.g.g.g`S`y.#.#`5`B``.#`X`i`i`T`i.j.j.d.j.#`P`2`P`T`T.j`i`#`f`f`f.g`X.g`c`y.#`n`5`w``.#`X`i`0`T`i.j`B.d.j`n`P`2`n`T`T`i.j",
"`B.#`w`B`y`f`B`P`J.g`S`q.j``.#.g`y`f`E`H`B`0`T`P`t`f`X`P.j`M`i`i`w.#`B`w`y.#`B`P`f.g`S.c.j``.#.g.g`f`P.d.j`0`r`2`y.g`f`P.j`M`i`i",
".j`f`t`2.g`n`E.#`f`y`y`5`B```P.g`c`c.g.g`P`B`w.#`S`y`y.#`P`B`i`6.j`f`t`2.g`n`P.#`X`y`t`c`B```n`f`5`c.g`X.#.j`B.#`S.g`t.#`2`B`i`H",
"`#`f`y`f.c`y`c`5`c.g`J`y`B```f.g`P`5`f`y`c.g.g`X`5.#`c.c`w`B`M`B`2`f`y`f.c`y`5`5`c.g`f`y`B```f.g`P`5`X.g`y.g`X.g`c`f`c`S`2`B`M`B",
".#`c`5`y`G`y`y.g`f`f`n`5`i``.#`f.j`A.c`t.c`S`2`P`y`#`f`S.g`B`2`f.#`t`5.g`S`y`t`f.g`f`E`5`i``.#`f.j`A.c`y`L`S`2`P`y`#`f`S.g`B`2`f",
".g`y`5`G`y.#.#`P.#`f`P`G`2```f`f`i`c.c`y`f.g`f`E.#`P`J`f`J`f`J`f.g`y`5`q`y.#.#`P`n`f`P`G`P```f`f`i`c.c`y`f.g`X`P.#`P`J`f`J`X`f`J",
"`f`X`S`h.#`c`X`T`B`G.c`S`2``.#.g.j.#`S.g`2`n`c`f`P.g.g`P`y.g`f.#`f`J`S`h.#`c`X`T`B`S.c`S`2``.#.g.j`f`G.g`2`n`y.g`2.g.g`P.g.g`f.#",
"`q`G`y`5`n`f`y.#`2`y.c`y`2```P`y`P`n`P`E.#`y`f.g.g`y`f.c.g`n`P.#`q`S`5`t.#.g`y.#`2`5`G`y`2```P`y`P`n`P`P.#`y`f.g`X`y`f`h.g.#`P`f",
".c.i`y.#`2`f`f.g`y.#`f`t`B```n`f`w.#`B`f`y`5`f`f`y.g`S`L`X`f`J`P.c.i`y`P`P`f`f.g`y.#`f`y`#```n`f`w`P`B`J`y`5`f`f`y.g`S`L`X`f`J`E",
"`T.d`T`T`T.d`H`i.j`H`T`6`U```T`6.e`7`U`d.d`M`6`6`r`T.j`i`T.d`T`H`T`i`T`r`6`T`H`i.j`T`r`6`U```T`6.e`7`U`6.d`i`6`6`r`H`i`i`T.d`T`T",
".``N```````````````l`j`7`j`7`j`j`7`j`7.``j.``j`U`7`j`````7`N.``N.e`N```````````````N`j`7`j`7`j`j`7`j`7.``j.``7`7`j`j`````7`N.``N",
"`Z`S`A`W..`e`g`p..`Z.i`S`5`5.g.#`P`2`f`c.c.c.c`S`S`v`O`A.g``.j`A.i`q`A`W..`e`g`p...i.i`S`S`5.g.#`P`2`f`c.c`q`S`q`S`1`O`1.g``.j`v",
".c`5`O.a`k.b`V`8`z`O`X.#`P`P`M`B.d`d.d`B.g`S`y`f`t`A...i`#``.j`O`q`5`1.a`k.b`V`8`z`O`X.#`P`P`M`B.d`d.d`B.g`S`y`f`y`A..`Z`B``.j`O",
"`y.i`O`g`a.b`g`Y`m`A.#.#`#`P`f`E`B`2`B`B.#`n.#`f`y.c.c`S`P```P`.`f.i`O`g`a.b`g`Y`m`A.#.#`#`P`f`E`B`2`B`B.#.#.#`f`t.c.c`S`P```P`A",
"`Z`h.i.f`b`e`F`e`t.c`q.#.#`P.g`f`2.#`n`f`5`y`P`P.g`y`X`S`f```2`A.i`h`A`W`s`e`F`e`t.c`q.#.#`P.g`f`2.#.#`f`c`y`P`E`f`y`X`G`f```2`1",
"`5.c`h.i..`1`O`O`1.c.i`h`f`E`P.#`X.g`f`y`L`5.#`2`P`P`y`h`J```P`A`c.c.c.i..`O`O`O`1.c.i`h`f`E`P.#.g`X`f`y`L`5.#`P`P`E`y`h`J```P`A",
"`h`L`q`S`G`h.c`.`W`h`S`q`X`P.#`y`y`L`5`y`h`c.#`S`y`J`L`e`y```P`1`G`h.c`S`q.c.c`.`W`h`S`q`X`P.#`y`y`L`5`y`h`c.#`5`y`f`L`e`y```P`1",
"`h`y`f`t`S`t`5`q..`v`c`y`5.#`f`t`h`1`h`D`1`S`S`q.i`h`L`e.g```2`e`h`t`f`c`5`c`5`q..`v`y`5`5`E`f`t`h`1`h`D`1`S`S`q.i`h`h`e.g```2`e",
"`X`5`5`y`f`f`S`S`5.g`f`J`f.#`y`G`A`O..`W`O`1`q.i..`A`f`G`P```2`.`f`5`5`c.#`f`S`S`5.g`f`J`f`f`y`S`1`1`m.f`O`..c.i`e`A`J`S`E```2`1",
".g`c`y.g`f`t.i`q`5`P`i`2`f`y`5`y`5`v`e`O`e`q.i`.`g`W..`A.#```P.i`J`5`y`f`f`c.i`G`5`P`i`#`f.g`5`t`5`A`e`O`e.c`Z`1`p.f..`A.#```P.i",
"`X.g`f`f`5`S`5`f`f.#.#`P.g`X`S`5`1`..i`I`F`x`K.h`p`p`K`x`y```#`h`f.g`f`J`S`5`5`f`f.#.#`P.g`y`5`c`1`..i`e`F`b`g`Y`g`p`K`b.g```B`Z",
".g`c.c`S`J`X`S`c.#`P`w`f`S`G`G.i`W`O..`z`z`z`V`p`A`4`o`p`c```B.c`J`S`q`S`f.g`S`c`f`E`B`f`S`G`q.i`x`O`e`u.h`z`V`K`Z`4`o`R`5```B.c",
".g`S`S`t`f.g.c`S`J`5.g.#`c`y`y`h`1`D`e`x`I`F.b`F`W`4`Q.f`t```B`A`X`5`S`t`f.g.c`S`J`y`y.#`c`y.g`h`.`D`e`x`e`F`p`R`W`4`Q`W`c```B`A",
"`c.g`c`S.g`5`q`S`S`S`y.#`G`S`y`S`G`y`q`1`Z`1`O`W..`m`b`.`P```2`D`y.g`5`S`y`5`q`G`S.c.g.#`G`S`t`S`S`y`G`O`Z`1`O`W..`m`4`.`E```2`m",
"`5`f.g`f`y`h.c`A.i`t`X`5`S.g.g`c`h`t.c`A`A`h`A`e.i`5`L.c`B```P`1`y.g`X`f.g`L.c`A.i`y`X`5`S.g`y`t`h`t.c.i`v`h`A`I.i`5`L.c`B```P`1",
"`U.d`i`6.d`0`i.j`0`i.j`B`r`6`i`i.d`i.d`d`6`U.d`0`T`T`i`i`6``.d`B`7`T`i`6.d`i`i.j`0`M.j`B`r`6.d`i.d`i.d`d`T`7`i.j`6`T`i`i`6```r.j",
".`.`.``j.`.``j```j.``j`N`j`N`````````N`N`C`j`N```C.`.e`C`l`j`N```j.`.``j`j`j.``N.``j.``N`j`N`````````N`N.e`j`N```l.``N`C`l`j`l``",
"`S`y.g.g`S`Z`O.i`S`y.g`5.#``.#`q`S`G`5`S`y.g`J`f.g`f`f.#`f`f`J`y`S`y.g.g`S`Z`1.i`S`y`y`5`E``.#`q`S`q`5`S`t.g`f.g`X`f`J`f`f.#`X`y",
"`2`P`P`#.g`y`S.g.g.g`2`B`r```f`S`f`2`P`J`P.j`B.j`i`i.j`B.j`#`B`P`2`P`P`#.g`c`S.g.g.g`#`B.d```f`S`f`2`2`f`P.j`B`0`i`i.j`B.j`2`B`P",
"`B.g.#`2`n`f`J.g`X`f`P`E`i``.g`S`M.d`i.#.#`i`B`B`B.j`M`B`B.j`M`B`w.g.#`2.#`f`J`X`f`f`P`P`i``.g`S`M`i`i.#.#`0`B`B.j.j`i`w`B.j`i`w",
"`2`X`f`f`y`J`y`X.#`f`n`f`B```y`S`i`i.d`P`P`2`2.j`B`B`B.j`i`B`w`B`2.g`f`f.g`f.g.g`n`J.#`J`B```y`S.d`i.d`P`2`B`2.j`B`B`B.j`i`B`B`w",
"`P`y`t`X`G`y`y.#`n`f`B.#`B```f`5`M`6`6.d.j`B.j`i`2.j.j`B.d.j`2`B`P`y`t`X`q`t`y`f`n`f`B.#`B```f`5`i`6`T.d`B`B.j`i`2.j.j`B.d.j`2.j",
"`w`f`f`f.g.g.g`5`y.#.#`5`B``.#`X`i`i`T`i.j.j.d`0.#`P`2`n`T`T`i.j`B`f`f`f.g`f`y`5`y.#.#`5`B``.#`X`i`0`T`i.j.j.d.j`n`P`2`E`T`T`i.j",
"`B.#`w`B`y`f`B`P`f.g`S`q.j``.#.g.g`f`P`H`B`0.d`2`t`X`f`P.j`M`i`i`w.#`w`B`y`f`w`P`f.g`S`q.j``.#.g.g`f`2.d.j`0`r`2`t.g`f`P.j`M`i`i",
".j`f`t`2.g`n.#`n`J`y`t`5`B```P`y`c`c.g.g.#`B`B`n`S.g`y`f`2`B`i`T.j`f`y`2.g.#`E`P.g`y`t`5`B``.#`f`c`5`y`X.#`B`B.#`S`X`y`f`P`B`i`H"
};
